<?xml version="1.0" standalone="yes"?>
<svg xmlns="http://www.w3.org/2000/svg" width="454" height="445">
<path style="fill:#010101; stroke:none;" d="M0 0L0 445L454 445L454 0L0 0z"/>
<path style="fill:#dddddd; stroke:none;" d="M303 288L303 289L306 289L303 288M301 289L299 292L301 289z"/>
<path style="fill:#4f4f4f; stroke:none;" d="M302 289L303 290L302 289z"/>
<path style="fill:#010101; stroke:none;" d="M302.981 290.176C298.735 291.707 295.891 296.775 292.83 299.83C285.967 306.681 275.809 315.036 266 316.674C245.273 320.137 220.935 313.487 204 301.88C199.941 299.098 188.821 288.06 183.647 293.6C179.344 298.207 200.374 309.834 204.001 312.092C221.557 323.023 254.723 329.462 275 322.637C286.028 318.924 297.28 308.426 304.695 299.715C306.801 297.24 309.751 287.734 302.981 290.176z"/>
<path style="fill:#333333; stroke:none;" d="M306 289L308 291L306 289z"/>
<path style="fill:#dddddd; stroke:none;" d="M307 289L308 290L307 289z"/>
<path style="fill:#333333; stroke:none;" d="M301 290L302 291L301 290z"/>
<path style="fill:#dddddd; stroke:none;" d="M308 290L309 291L308 290M184 291L185 292L184 291z"/>
<path style="fill:#8a8a8a; stroke:none;" d="M185 291L185 292L189 292L185 291z"/>
<path style="fill:#dddddd; stroke:none;" d="M189 291L190 292L189 291z"/>
<path style="fill:#333333; stroke:none;" d="M300 291L301 292L300 291z"/>
<path style="fill:#8a8a8a; stroke:none;" d="M308 291L308 295L309 295L308 291z"/>
<path style="fill:#dddddd; stroke:none;" d="M182 292L183 293L182 292z"/>
<path style="fill:#4f4f4f; stroke:none;" d="M183 292L184 293L183 292z"/>
<path style="fill:#333333; stroke:none;" d="M190 292L191 293L190 292z"/>
<path style="fill:#dddddd; stroke:none;" d="M191 292L192 293L191 292z"/>
<path style="fill:#4f4f4f; stroke:none;" d="M299 292L300 293L299 292M182 293L183 294L182 293z"/>
<path style="fill:#333333; stroke:none;" d="M192 293L194 295L192 293z"/>
<path style="fill:#dddddd; stroke:none;" d="M193 293L194 294L193 293z"/>
<path style="fill:#8a8a8a; stroke:none;" d="M298 293L299 294L298 293z"/>
<path style="fill:#dddddd; stroke:none;" d="M181 294L182 295L181 294M194 294L195 295L194 294M296 294L295 296L296 294z"/>
<path style="fill:#4f4f4f; stroke:none;" d="M297 294L298 295L297 294z"/>
<path style="fill:#8a8a8a; stroke:none;" d="M181 295L182 296L181 295z"/>
<path style="fill:#333333; stroke:none;" d="M195 295L199 299L195 295z"/>
<path style="fill:#dddddd; stroke:none;" d="M196 295L197 296L196 295z"/>
<path style="fill:#333333; stroke:none;" d="M296 295L297 296L296 295z"/>
<path style="fill:#dddddd; stroke:none;" d="M308 295L309 296L308 295M181 296L183 299L181 296M197 296L198 297L197 296z"/>
<path style="fill:#4f4f4f; stroke:none;" d="M295 296L296 297L295 296z"/>
<path style="fill:#8a8a8a; stroke:none;" d="M307 296L308 297L307 296z"/>
<path style="fill:#333333; stroke:none;" d="M182 297L183 298L182 297z"/>
<path style="fill:#dddddd; stroke:none;" d="M198 297L199 298L198 297M294 297L290 302L294 297z"/>
<path style="fill:#8a8a8a; stroke:none;" d="M306 297L307 298L306 297z"/>
<path style="fill:#dddddd; stroke:none;" d="M199 298L200 299L199 298z"/>
<path style="fill:#333333; stroke:none;" d="M294 298L295 299L294 298z"/>
<path style="fill:#dddddd; stroke:none;" d="M306 298L307 299L306 298M183 299L184 300L183 299z"/>
<path style="fill:#8a8a8a; stroke:none;" d="M184.667 299.333L185.333 299.667L184.667 299.333z"/>
<path style="fill:#333333; stroke:none;" d="M200 299L201 300L200 299z"/>
<path style="fill:#dddddd; stroke:none;" d="M201 299L202 300L201 299z"/>
<path style="fill:#333333; stroke:none;" d="M293 299L294 300L293 299z"/>
<path style="fill:#8a8a8a; stroke:none;" d="M305 299L306 300L305 299z"/>
<path style="fill:#dddddd; stroke:none;" d="M186 300L187 301L186 300z"/>
<path style="fill:#8a8a8a; stroke:none;" d="M187 300L188 301L187 300z"/>
<path style="fill:#dddddd; stroke:none;" d="M202 300L203 301L202 300z"/>
<path style="fill:#333333; stroke:none;" d="M292 300L293 301L292 300z"/>
<path style="fill:#8a8a8a; stroke:none;" d="M304 300L305 301L304 300z"/>
<path style="fill:#dddddd; stroke:none;" d="M188 301L189 302L188 301z"/>
<path style="fill:#333333; stroke:none;" d="M203 301L205 303L203 301z"/>
<path style="fill:#dddddd; stroke:none;" d="M204 301L205 302L204 301z"/>
<path style="fill:#333333; stroke:none;" d="M291 301L292 302L291 301z"/>
<path style="fill:#8a8a8a; stroke:none;" d="M302 301L303 302L302 301z"/>
<path style="fill:#dddddd; stroke:none;" d="M303 301L304 302L303 301M189 302L191 304L189 302z"/>
<path style="fill:#333333; stroke:none;" d="M190 302L191 303L190 302z"/>
<path style="fill:#dddddd; stroke:none;" d="M205 302L206 303L205 302M288 302L286 305L288 302z"/>
<path style="fill:#4f4f4f; stroke:none;" d="M289 302L290 303L289 302z"/>
<path style="fill:#8a8a8a; stroke:none;" d="M301 302L302 303L301 302z"/>
<path style="fill:#333333; stroke:none;" d="M206 303L208 305L206 303z"/>
<path style="fill:#dddddd; stroke:none;" d="M207 303L208 304L207 303z"/>
<path style="fill:#333333; stroke:none;" d="M288 303L289 304L288 303z"/>
<path style="fill:#dddddd; stroke:none;" d="M301 303L302 304L301 303M191 304L192 305L191 304z"/>
<path style="fill:#8a8a8a; stroke:none;" d="M192 304L193 305L192 304z"/>
<path style="fill:#dddddd; stroke:none;" d="M208 304L209 305L208 304z"/>
<path style="fill:#333333; stroke:none;" d="M287 304L288 305L287 304z"/>
<path style="fill:#8a8a8a; stroke:none;" d="M300 304L301 305L300 304z"/>
<path style="fill:#dddddd; stroke:none;" d="M193 305L194 306L193 305z"/>
<path style="fill:#8a8a8a; stroke:none;" d="M194 305L195 306L194 305z"/>
<path style="fill:#333333; stroke:none;" d="M209 305L210 306L209 305z"/>
<path style="fill:#dddddd; stroke:none;" d="M210 305L211 306L210 305z"/>
<path style="fill:#4f4f4f; stroke:none;" d="M286 305L287 306L286 305z"/>
<path style="fill:#8a8a8a; stroke:none;" d="M299 305L300 306L299 305z"/>
<path style="fill:#dddddd; stroke:none;" d="M195 306L197 308L195 306z"/>
<path style="fill:#333333; stroke:none;" d="M196 306L197 307L196 306M211 306L212 307L211 306z"/>
<path style="fill:#dddddd; stroke:none;" d="M212 306L213 307L212 306M284 306L285 307L284 306z"/>
<path style="fill:#4f4f4f; stroke:none;" d="M285 306L286 307L285 306z"/>
<path style="fill:#dddddd; stroke:none;" d="M298 306L299 307L298 306z"/>
<path style="fill:#333333; stroke:none;" d="M213 307L216 310L213 307z"/>
<path style="fill:#dddddd; stroke:none;" d="M214 307L215 308L214 307M282 307L283 308L282 307z"/>
<path style="fill:#4f4f4f; stroke:none;" d="M283 307L284 308L283 307z"/>
<path style="fill:#8a8a8a; stroke:none;" d="M297 307L298 308L297 307z"/>
<path style="fill:#dddddd; stroke:none;" d="M197 308L198 309L197 308z"/>
<path style="fill:#8a8a8a; stroke:none;" d="M198 308L199 309L198 308z"/>
<path style="fill:#dddddd; stroke:none;" d="M215 308L216 309L215 308M280 308L281 309L280 308z"/>
<path style="fill:#4f4f4f; stroke:none;" d="M281 308L282 309L281 308z"/>
<path style="fill:#8a8a8a; stroke:none;" d="M296 308L297 309L296 308z"/>
<path style="fill:#dddddd; stroke:none;" d="M199 309L200 310L199 309z"/>
<path style="fill:#8a8a8a; stroke:none;" d="M200 309L201 310L200 309M216 309L217 310L216 309z"/>
<path style="fill:#dddddd; stroke:none;" d="M217 309L218 310L217 309z"/>
<path style="fill:#4f4f4f; stroke:none;" d="M280 309L281 310L280 309z"/>
<path style="fill:#8a8a8a; stroke:none;" d="M294 309L295 310L294 309z"/>
<path style="fill:#dddddd; stroke:none;" d="M295 309L296 310L295 309M201 310L202 311L201 310z"/>
<path style="fill:#333333; stroke:none;" d="M218 310L219 311L218 310z"/>
<path style="fill:#8a8a8a; stroke:none;" d="M219 310L220 311L219 310z"/>
<path style="fill:#dddddd; stroke:none;" d="M220 310L221 311L220 310M278 310L279 311L278 310z"/>
<path style="fill:#4f4f4f; stroke:none;" d="M279 310L280 311L279 310z"/>
<path style="fill:#8a8a8a; stroke:none;" d="M293 310L294 311L293 310z"/>
<path style="fill:#dddddd; stroke:none;" d="M202 311L203 312L202 311z"/>
<path style="fill:#333333; stroke:none;" d="M221 311L223 313L221 311z"/>
<path style="fill:#dddddd; stroke:none;" d="M222 311L223 312L222 311M276 311L274 314L276 311z"/>
<path style="fill:#4f4f4f; stroke:none;" d="M277 311L278 312L277 311z"/>
<path style="fill:#8a8a8a; stroke:none;" d="M292 311L293 312L292 311z"/>
<path style="fill:#dddddd; stroke:none;" d="M203 312L204 313L203 312z"/>
<path style="fill:#8a8a8a; stroke:none;" d="M204 312L205 313L204 312M223 312L223 313L226 313L223 312z"/>
<path style="fill:#dddddd; stroke:none;" d="M226 312L227 313L226 312z"/>
<path style="fill:#333333; stroke:none;" d="M276 312L277 313L276 312z"/>
<path style="fill:#8a8a8a; stroke:none;" d="M291 312L292 313L291 312z"/>
<path style="fill:#dddddd; stroke:none;" d="M205 313L206 314L205 313z"/>
<path style="fill:#8a8a8a; stroke:none;" d="M206 313L207 314L206 313z"/>
<path style="fill:#333333; stroke:none;" d="M227 313L228 314L227 313z"/>
<path style="fill:#8a8a8a; stroke:none;" d="M228 313L228 314L231 314L228 313z"/>
<path style="fill:#dddddd; stroke:none;" d="M231 313L232 314L231 313z"/>
<path style="fill:#333333; stroke:none;" d="M275 313L276 314L275 313z"/>
<path style="fill:#8a8a8a; stroke:none;" d="M289 313L290 314L289 313z"/>
<path style="fill:#dddddd; stroke:none;" d="M290 313L291 314L290 313M207 314L208 315L207 314z"/>
<path style="fill:#8a8a8a; stroke:none;" d="M208 314L209 315L208 314z"/>
<path style="fill:#333333; stroke:none;" d="M232 314L233 315L232 314z"/>
<path style="fill:#8a8a8a; stroke:none;" d="M233 314L233 315L241 315L233 314z"/>
<path style="fill:#dddddd; stroke:none;" d="M241 314L242 315L241 314M271 314L272 315L271 314z"/>
<path style="fill:#8a8a8a; stroke:none;" d="M272 314L273 315L272 314z"/>
<path style="fill:#4f4f4f; stroke:none;" d="M273 314L274 315L273 314z"/>
<path style="fill:#8a8a8a; stroke:none;" d="M288 314L289 315L288 314z"/>
<path style="fill:#dddddd; stroke:none;" d="M209 315L210 316L209 315z"/>
<path style="fill:#333333; stroke:none;" d="M242 315L243 316L242 315z"/>
<path style="fill:#8a8a8a; stroke:none;" d="M243 315L243 316L247 316L243 315z"/>
<path style="fill:#dddddd; stroke:none;" d="M247 315L248 316L247 315M268 315L269 316L268 315z"/>
<path style="fill:#8a8a8a; stroke:none;" d="M269 315L270 316L269 315z"/>
<path style="fill:#4f4f4f; stroke:none;" d="M270 315L271 316L270 315z"/>
<path style="fill:#8a8a8a; stroke:none;" d="M286 315L287 316L286 315z"/>
<path style="fill:#dddddd; stroke:none;" d="M287 315L288 316L287 315M210 316L211 317L210 316z"/>
<path style="fill:#333333; stroke:none;" d="M248 316L249 317L248 316z"/>
<path style="fill:#8a8a8a; stroke:none;" d="M249 316L249 317L267 317L249 316z"/>
<path style="fill:#4f4f4f; stroke:none;" d="M267 316L268 317L267 316z"/>
<path style="fill:#8a8a8a; stroke:none;" d="M285 316L286 317L285 316z"/>
<path style="fill:#dddddd; stroke:none;" d="M211 317L212 318L211 317z"/>
<path style="fill:#8a8a8a; stroke:none;" d="M212.667 317.333L213.333 317.667L212.667 317.333M284 317L285 318L284 317z"/>
<path style="fill:#dddddd; stroke:none;" d="M214 318L215 319L214 318z"/>
<path style="fill:#8a8a8a; stroke:none;" d="M215.667 318.333L216.333 318.667L215.667 318.333M282 318L283 319L282 318z"/>
<path style="fill:#dddddd; stroke:none;" d="M283 318L284 319L283 318M217 319L218 320L217 319z"/>
<path style="fill:#8a8a8a; stroke:none;" d="M281 319L282 320L281 319z"/>
<path style="fill:#dddddd; stroke:none;" d="M218 320L219 321L218 320z"/>
<path style="fill:#8a8a8a; stroke:none;" d="M219 320L219 321L223 321L219 320M280 320L281 321L280 320z"/>
<path style="fill:#dddddd; stroke:none;" d="M223 321L224 322L223 321z"/>
<path style="fill:#8a8a8a; stroke:none;" d="M224 321L224 322L228 322L224 321M278 321L279 322L278 321z"/>
<path style="fill:#dddddd; stroke:none;" d="M279 321L280 322L279 321M228 322L229 323L228 322z"/>
<path style="fill:#8a8a8a; stroke:none;" d="M229 322L229 323L239 323L229 322M275.667 322.333L276.333 322.667L275.667 322.333z"/>
<path style="fill:#dddddd; stroke:none;" d="M277 322L278 323L277 322M239 323L240 324L239 323z"/>
<path style="fill:#8a8a8a; stroke:none;" d="M240 323L240 324L244 324L240 323M272.667 323.333L273.333 323.667L272.667 323.333z"/>
<path style="fill:#dddddd; stroke:none;" d="M274 323L275 324L274 323M244 324L245 325L244 324z"/>
<path style="fill:#8a8a8a; stroke:none;" d="M245 324L245 325L271 325L245 324z"/>
<path style="fill:#dddddd; stroke:none;" d="M271 324L272 325L271 324z"/>
</svg>
