<?xml version="1.0" standalone="yes"?>
<svg xmlns="http://www.w3.org/2000/svg" width="444" height="424">
<path style="fill:#010101; stroke:none;" d="M0 0L0 424L444 424L444 0L0 0z"/>
<path style="fill:#0a0709; stroke:none;" d="M259 285L260 286L259 285M250 288L251 289L250 288M253.333 291.667L253.667 292.333L253.333 291.667z"/>
<path style="fill:#110f11; stroke:none;" d="M254 291L255 292L254 291z"/>
<path style="fill:#0c0d0e; stroke:none;" d="M255 291L256 292L255 291z"/>
<path style="fill:#0b0a0e; stroke:none;" d="M254 292L256 294L256 292L254 292z"/>
<path style="fill:#0a0709; stroke:none;" d="M191 293L192 294L191 293z"/>
<path style="fill:#0c0d0e; stroke:none;" d="M253 293L255 296L253 293z"/>
<path style="fill:#110f11; stroke:none;" d="M254 293L254 295L256 295L254 293z"/>
<path style="fill:#0a0709; stroke:none;" d="M241.667 294.333L242.333 294.667L241.667 294.333M216 295L217 296L216 295z"/>
<path style="fill:#110f11; stroke:none;" d="M253 295L254 296L253 295z"/>
<path style="fill:#0b0a0e; stroke:none;" d="M255 295L256 296L255 295z"/>
<path style="fill:#0a0709; stroke:none;" d="M210.667 296.333L211.333 296.667L210.667 296.333M164.333 297.667L164.667 298.333L164.333 297.667M178 297L179 298L178 297M207 297L208 298L207 297M181 298L181 299L184 299L181 298M181 300L182 301L181 300M183.667 300.333L184.333 300.667L183.667 300.333M257 300L258 301L257 300z"/>
<path style="fill:#0b0a0e; stroke:none;" d="M187.667 301.333L188.333 301.667L187.667 301.333z"/>
<path style="fill:#0a0709; stroke:none;" d="M189 301L189 302L193 302L189 301M166 302L167 303L166 302z"/>
<path style="fill:#0c0d0e; stroke:none;" d="M167 302L168 303L167 302z"/>
<path style="fill:#0a0709; stroke:none;" d="M194 302L194 303L197 304L194 302M199 304L199 305L206 306L199 304M208 305L208 306L214 306L208 305M180 306L181 307L180 306M182 306L182 307L185 308L182 306M245.667 307.333L246.333 307.667L245.667 307.333M189 308L189 309L192 309L192 308L189 308z"/>
<path style="fill:#0b0a0e; stroke:none;" d="M190 308L191 309L190 308M191 309L192 310L191 309z"/>
<path style="fill:#0a0709; stroke:none;" d="M255 311L256 312L255 311M219.333 313.667L219.667 314.333L219.333 313.667M242 313L243 314L242 313M178.667 314.333L179.333 314.667L178.667 314.333z"/>
<path style="fill:#0b0a0e; stroke:none;" d="M187 314L188 315L187 314z"/>
<path style="fill:#0a0709; stroke:none;" d="M188 314L189 315L188 314M191.667 314.333L192.333 314.667L191.667 314.333z"/>
<path style="fill:#0b0a0e; stroke:none;" d="M192 315L193 316L192 315z"/>
<path style="fill:#0a0709; stroke:none;" d="M180 316L182 318L180 316M195 316L196 317L195 316M173 318L174 319L173 318z"/>
<path style="fill:#0c0d0e; stroke:none;" d="M184 318L185 319L184 318z"/>
<path style="fill:#0a0709; stroke:none;" d="M246 318L247 319L246 318M254 318L255 319L254 318M182.667 319.333L183.333 319.667L182.667 319.333z"/>
<path style="fill:#0b0a0e; stroke:none;" d="M184 319L185 320L184 319z"/>
<path style="fill:#0a0709; stroke:none;" d="M175.667 320.333L176.333 320.667L175.667 320.333M189 322L190 323L189 322M228 322L229 323L228 322M257 322L258 323L257 322z"/>
<path style="fill:#0b0a0e; stroke:none;" d="M258 322L259 323L258 322z"/>
<path style="fill:#0a0709; stroke:none;" d="M191 323L193 325L193 323L191 323M210.667 323.333L211.333 323.667L210.667 323.333M239 323L240 324L239 323M253 323L253 324L256 325L253 323z"/>
<path style="fill:#0b0a0e; stroke:none;" d="M254 324L255 325L254 324z"/>
<path style="fill:#0a0709; stroke:none;" d="M222 325L222 326L227 326L222 325M187 326L188 327L187 326M191 328L192 329L191 328z"/>
<path style="fill:#0c0d0e; stroke:none;" d="M218 328L219 329L218 328z"/>
<path style="fill:#0a0709; stroke:none;" d="M219.667 328.333L220.333 328.667L219.667 328.333M251 329L249 332L251 329z"/>
<path style="fill:#0c0d0e; stroke:none;" d="M252 329L253 330L252 329z"/>
<path style="fill:#0a0709; stroke:none;" d="M227.333 330.667L227.667 331.333L227.333 330.667M242 330L243 331L242 330z"/>
<path style="fill:#0b0a0e; stroke:none;" d="M242 331L243 332L242 331z"/>
<path style="fill:#110f11; stroke:none;" d="M250 331L251 332L250 331z"/>
<path style="fill:#0a0709; stroke:none;" d="M213 332L214 333L213 332M259 332L260 333L259 332M199.667 335.333L200.333 335.667L199.667 335.333M253.667 335.333L254.333 335.667L253.667 335.333M192 336L193 337L192 336M225.667 336.333L226.333 336.667L225.667 336.333M244 338L245 339L244 338M223.667 348.333L224.333 348.667L223.667 348.333z"/>
</svg>
