<?xml version="1.0" standalone="yes"?>
<svg xmlns="http://www.w3.org/2000/svg" width="426" height="423">
<path style="fill:#010101; stroke:none;" d="M0 0L0 423L426 423L426 0L0 0z"/>
<path style="fill:#050505; stroke:none;" d="M262 283L263 284L262 283z"/>
<path style="fill:#010105; stroke:none;" d="M207.667 284.333L208.333 284.667L207.667 284.333z"/>
<path style="fill:#050505; stroke:none;" d="M230 284L231 285L230 284M266 285L267 286L266 285M269 287L270 288L269 287z"/>
<path style="fill:#010105; stroke:none;" d="M273 293L274 294L273 293M271 294L272 295L271 294z"/>
<path style="fill:#0a090b; stroke:none;" d="M274 294L275 295L274 294z"/>
<path style="fill:#050505; stroke:none;" d="M197 296L198 297L197 296M285 297L286 298L285 297z"/>
<path style="fill:#010105; stroke:none;" d="M191 299L192 300L191 299z"/>
<path style="fill:#050505; stroke:none;" d="M177 302L178 303L177 302z"/>
<path style="fill:#0a090b; stroke:none;" d="M172 303L173 304L172 303z"/>
<path style="fill:#070507; stroke:none;" d="M173 303L174 304L173 303z"/>
<path style="fill:#010105; stroke:none;" d="M174 303L175 304L174 303z"/>
<path style="fill:#050505; stroke:none;" d="M265 303L266 304L265 303z"/>
<path style="fill:#010105; stroke:none;" d="M271.667 303.333L272.333 303.667L271.667 303.333z"/>
<path style="fill:#050505; stroke:none;" d="M261 304L262 305L261 304M135 305L136 306L135 305M178 305L179 306L178 305M178 313L179 314L178 313M191 317L192 318L191 317z"/>
<path style="fill:#010105; stroke:none;" d="M267 320L268 321L267 320z"/>
<path style="fill:#050505; stroke:none;" d="M208 321L209 322L208 321M225 325L226 326L225 325M261 330L262 331L261 330z"/>
</svg>
