<?xml version="1.0" standalone="yes"?>
<svg xmlns="http://www.w3.org/2000/svg" width="471" height="422">
<path style="fill:#010101; stroke:none;" d="M0 0L0 422L471 422L471 0L0 0z"/>
<path style="fill:#090909; stroke:none;" d="M171 279L173 281L171 279M339 279L338 281L339 279M320 280L322 282L320 280M270 281L271 282L270 281M173 282L174 283L173 282M228.333 282.667L228.667 283.333L228.333 282.667M337 282L338 283L337 282z"/>
<path style="fill:#101010; stroke:none;" d="M271 283L272 284L271 283M174 284L176 286L174 284M228 284L229 285L228 284z"/>
<path style="fill:#090909; stroke:none;" d="M322 284L323 285L322 284M345 284L346 285L345 284z"/>
<path style="fill:#101010; stroke:none;" d="M165 285L166 286L165 285z"/>
<path style="fill:#090909; stroke:none;" d="M229 285L230 286L229 285M272 285L273 286L272 285z"/>
<path style="fill:#101010; stroke:none;" d="M336 285L337 286L336 285z"/>
<path style="fill:#1a1a1a; stroke:none;" d="M166 286L167 287L166 286z"/>
<path style="fill:#090909; stroke:none;" d="M176 286L177 287L176 286z"/>
<path style="fill:#101010; stroke:none;" d="M229 286L230 287L229 286M272.333 286.667L272.667 287.333L272.333 286.667z"/>
<path style="fill:#090909; stroke:none;" d="M323.333 286.667L323.667 287.333L323.333 286.667M344 286L345 287L344 286z"/>
<path style="fill:#1a1a1a; stroke:none;" d="M176 287L177 288L176 287z"/>
<path style="fill:#090909; stroke:none;" d="M220 287L218 290L221 288L221 295L222 295L220 287z"/>
<path style="fill:#232323; stroke:none;" d="M221 287L222 288L221 287z"/>
<path style="fill:#090909; stroke:none;" d="M229 287L229 291L230 291L229 287M263 287L259 293L263 288L264 288L264 292L265 292L263 287z"/>
<path style="fill:#1a1a1a; stroke:none;" d="M264 287L265 288L264 287z"/>
<path style="fill:#090909; stroke:none;" d="M313.667 287.333L314.333 287.667L313.667 287.333M335 287L336 288L335 287z"/>
<path style="fill:#1a1a1a; stroke:none;" d="M167 288L170 291L167 288M177 288L178 289L177 288z"/>
<path style="fill:#232323; stroke:none;" d="M272 288L273 289L272 288z"/>
<path style="fill:#1a1a1a; stroke:none;" d="M315 288L316 289L315 288M323 288L324 289L323 288z"/>
<path style="fill:#101010; stroke:none;" d="M335 288L336 289L335 288z"/>
<path style="fill:#090909; stroke:none;" d="M178 289L179 290L178 289M250 289L247 293L250 289M273 289L274 290L273 289M301 289L300 291L301 289M311 289L309 293L313 289L311 289M315.333 289.667L315.667 290.333L315.333 289.667z"/>
<path style="fill:#101010; stroke:none;" d="M334 289L335 290L334 289z"/>
<path style="fill:#090909; stroke:none;" d="M343.333 289.667L343.667 290.333L343.333 289.667z"/>
<path style="fill:#1a1a1a; stroke:none;" d="M178 290L179 291L178 290z"/>
<path style="fill:#101010; stroke:none;" d="M273 290L273 293L274 293L273 290z"/>
<path style="fill:#090909; stroke:none;" d="M324 290L325 291L324 290M169 291L170 292L169 291M179 291L181 293L179 291M216 291L217 292L216 291z"/>
<path style="fill:#101010; stroke:none;" d="M229 291L230 292L229 291M299 291L300 292L299 291z"/>
<path style="fill:#232323; stroke:none;" d="M316 291L317 292L316 291z"/>
<path style="fill:#101010; stroke:none;" d="M324 291L325 292L324 291z"/>
<path style="fill:#232323; stroke:none;" d="M170 292L171 293L170 292z"/>
<path style="fill:#101010; stroke:none;" d="M179 292L180 293L179 292z"/>
<path style="fill:#090909; stroke:none;" d="M229 292L230 293L229 292z"/>
<path style="fill:#232323; stroke:none;" d="M265 292L266 293L265 292z"/>
<path style="fill:#090909; stroke:none;" d="M298 292L299 293L298 292z"/>
<path style="fill:#101010; stroke:none;" d="M316 292L317 293L316 292z"/>
<path style="fill:#1a1a1a; stroke:none;" d="M325 292L326 293L325 292z"/>
<path style="fill:#101010; stroke:none;" d="M333 292L334 293L333 292z"/>
<path style="fill:#090909; stroke:none;" d="M342 292L341 294L342 292z"/>
<path style="fill:#1a1a1a; stroke:none;" d="M171 293L172 294L171 293M180 293L181 294L180 293z"/>
<path style="fill:#090909; stroke:none;" d="M215 293L212 298L215 293z"/>
<path style="fill:#1a1a1a; stroke:none;" d="M229 293L230 294L229 293z"/>
<path style="fill:#101010; stroke:none;" d="M246 293L247 294L246 293z"/>
<path style="fill:#090909; stroke:none;" d="M257 293L258 294L257 293z"/>
<path style="fill:#101010; stroke:none;" d="M258 293L259 294L258 293M265 293L265 296L266 296L265 293z"/>
<path style="fill:#232323; stroke:none;" d="M273 293L274 294L273 293z"/>
<path style="fill:#101010; stroke:none;" d="M297 293L298 294L297 293M308 293L309 294L308 293z"/>
<path style="fill:#090909; stroke:none;" d="M316 293L317 294L316 293M326.333 293.667L326.667 294.333L326.333 293.667M171 294L172 295L171 294z"/>
<path style="fill:#101010; stroke:none;" d="M181 294L182 295L181 294z"/>
<path style="fill:#090909; stroke:none;" d="M230 294L231 295L230 294z"/>
<path style="fill:#101010; stroke:none;" d="M245 294L246 295L245 294z"/>
<path style="fill:#232323; stroke:none;" d="M256 294L257 295L256 294z"/>
<path style="fill:#101010; stroke:none;" d="M274 294L275 295L274 294M296 294L297 295L296 294z"/>
<path style="fill:#090909; stroke:none;" d="M307 294L306 296L308 296L307 294z"/>
<path style="fill:#232323; stroke:none;" d="M317 294L318 295L317 294M172 295L173 296L172 295z"/>
<path style="fill:#1a1a1a; stroke:none;" d="M181 295L182 296L181 295z"/>
<path style="fill:#101010; stroke:none;" d="M230 295L231 296L230 295M244 295L245 296L244 295z"/>
<path style="fill:#090909; stroke:none;" d="M255 295L252 299L255 295z"/>
<path style="fill:#1a1a1a; stroke:none;" d="M274.333 295.667L274.667 296.333L274.333 295.667z"/>
<path style="fill:#090909; stroke:none;" d="M295 295L296 296L295 295M317.667 295.333L318.333 295.667L317.667 295.333z"/>
<path style="fill:#232323; stroke:none;" d="M326 295L327 296L326 295z"/>
<path style="fill:#1a1a1a; stroke:none;" d="M332 295L333 296L332 295z"/>
<path style="fill:#090909; stroke:none;" d="M172.667 296.333L173.333 296.667L172.667 296.333z"/>
<path style="fill:#1a1a1a; stroke:none;" d="M182 296L184 298L182 296z"/>
<path style="fill:#090909; stroke:none;" d="M183 296L184 297L183 296M203 296L204 297L203 296z"/>
<path style="fill:#101010; stroke:none;" d="M222 296L223 297L222 296z"/>
<path style="fill:#1a1a1a; stroke:none;" d="M230 296L231 297L230 296z"/>
<path style="fill:#101010; stroke:none;" d="M243 296L244 297L243 296M255 296L256 297L255 296z"/>
<path style="fill:#090909; stroke:none;" d="M265 296L266 297L265 296z"/>
<path style="fill:#1a1a1a; stroke:none;" d="M294 296L295 297L294 296z"/>
<path style="fill:#232323; stroke:none;" d="M305 296L306 297L305 296z"/>
<path style="fill:#1a1a1a; stroke:none;" d="M318 296L319 297L318 296M327 296L328 297L327 296z"/>
<path style="fill:#090909; stroke:none;" d="M340 296L341 297L340 296z"/>
<path style="fill:#101010; stroke:none;" d="M173 297L174 298L173 297z"/>
<path style="fill:#090909; stroke:none;" d="M222 297L223 298L222 297M231 297L231 300L232 300L231 297z"/>
<path style="fill:#1a1a1a; stroke:none;" d="M242 297L243 298L242 297z"/>
<path style="fill:#101010; stroke:none;" d="M254 297L255 298L254 297z"/>
<path style="fill:#232323; stroke:none;" d="M266 297L267 298L266 297M274 297L275 298L274 297z"/>
<path style="fill:#090909; stroke:none;" d="M276 297L279 303L280 303L276 297z"/>
<path style="fill:#1a1a1a; stroke:none;" d="M293 297L294 298L293 297z"/>
<path style="fill:#090909; stroke:none;" d="M304.667 297.333L305.333 297.667L304.667 297.333z"/>
<path style="fill:#101010; stroke:none;" d="M318 297L319 298L318 297z"/>
<path style="fill:#090909; stroke:none;" d="M173 298L174 299L173 298M184 298L186 300L184 298z"/>
<path style="fill:#101010; stroke:none;" d="M211 298L212 299L211 298z"/>
<path style="fill:#1a1a1a; stroke:none;" d="M241 298L242 299L241 298z"/>
<path style="fill:#101010; stroke:none;" d="M253 298L254 299L253 298M266.333 298.667L266.667 299.333L266.333 298.667M275 298L276 299L275 298z"/>
<path style="fill:#010101; stroke:none;" d="M276.333 298.667L276.667 299.333L276.333 298.667z"/>
<path style="fill:#232323; stroke:none;" d="M292 298L293 299L292 298z"/>
<path style="fill:#101010; stroke:none;" d="M304 298L305 299L304 298z"/>
<path style="fill:#232323; stroke:none;" d="M319 298L320 299L319 298z"/>
<path style="fill:#090909; stroke:none;" d="M328 298L329 299L328 298z"/>
<path style="fill:#232323; stroke:none;" d="M331 298L332 299L331 298z"/>
<path style="fill:#090909; stroke:none;" d="M339 298L340 299L339 298z"/>
<path style="fill:#232323; stroke:none;" d="M174 299L175 300L174 299z"/>
<path style="fill:#1a1a1a; stroke:none;" d="M184 299L185 300L184 299z"/>
<path style="fill:#090909; stroke:none;" d="M210 299L211 300L210 299z"/>
<path style="fill:#101010; stroke:none;" d="M223 299L224 300L223 299z"/>
<path style="fill:#090909; stroke:none;" d="M239 299L235 304L239 299z"/>
<path style="fill:#1a1a1a; stroke:none;" d="M251 299L252 300L251 299z"/>
<path style="fill:#232323; stroke:none;" d="M275 299L276 300L275 299M291 299L292 300L291 299z"/>
<path style="fill:#090909; stroke:none;" d="M302 299L303 300L302 299z"/>
<path style="fill:#101010; stroke:none;" d="M303 299L304 300L303 299M319 299L320 300L319 299M328 299L329 300L328 299z"/>
<path style="fill:#1a1a1a; stroke:none;" d="M175 300L177 302L175 300z"/>
<path style="fill:#232323; stroke:none;" d="M185 300L186 301L185 300z"/>
<path style="fill:#101010; stroke:none;" d="M210 300L211 301L210 300z"/>
<path style="fill:#1a1a1a; stroke:none;" d="M231 300L232 301L231 300z"/>
<path style="fill:#090909; stroke:none;" d="M250 300L248 303L250 300M266 300L267 301L266 300z"/>
<path style="fill:#101010; stroke:none;" d="M276 300L276 303L277 303L276 300z"/>
<path style="fill:#232323; stroke:none;" d="M290 300L291 301L290 300z"/>
<path style="fill:#101010; stroke:none;" d="M302 300L303 301L302 300z"/>
<path style="fill:#232323; stroke:none;" d="M320 300L321 301L320 300M329 300L330 301L329 300z"/>
<path style="fill:#101010; stroke:none;" d="M330 300L331 301L330 300z"/>
<path style="fill:#090909; stroke:none;" d="M339 300L340 301L339 300M175 301L176 302L175 301z"/>
<path style="fill:#232323; stroke:none;" d="M186 301L187 302L186 301z"/>
<path style="fill:#101010; stroke:none;" d="M187 301L188 302L187 301z"/>
<path style="fill:#090909; stroke:none;" d="M188.667 301.333L189.333 301.667L188.667 301.333M198 301L197 303L198 301M209 301L208 303L210 303L209 301z"/>
<path style="fill:#101010; stroke:none;" d="M250 301L251 302L250 301z"/>
<path style="fill:#1a1a1a; stroke:none;" d="M267 301L268 302L267 301M288 301L286 304L288 301M301 301L302 302L301 301z"/>
<path style="fill:#101010; stroke:none;" d="M320 301L321 302L320 301z"/>
<path style="fill:#090909; stroke:none;" d="M176 302L177 303L176 302z"/>
<path style="fill:#1a1a1a; stroke:none;" d="M190 302L191 303L190 302z"/>
<path style="fill:#090909; stroke:none;" d="M191 302L192 303L191 302z"/>
<path style="fill:#101010; stroke:none;" d="M249 302L250 303L249 302z"/>
<path style="fill:#090909; stroke:none;" d="M267 302L268 303L267 302M299 302L298 304L299 302z"/>
<path style="fill:#101010; stroke:none;" d="M300 302L301 303L300 302z"/>
<path style="fill:#090909; stroke:none;" d="M320 302L321 303L320 302M338 302L337 304L338 302z"/>
<path style="fill:#232323; stroke:none;" d="M177 303L178 304L177 303z"/>
<path style="fill:#101010; stroke:none;" d="M192 303L193 304L192 303M207 303L208 304L207 303z"/>
<path style="fill:#1a1a1a; stroke:none;" d="M232 303L233 304L232 303M247 303L248 304L247 303M268 303L269 304L268 303z"/>
<path style="fill:#232323; stroke:none;" d="M276 303L277 304L276 303z"/>
<path style="fill:#101010; stroke:none;" d="M299 303L300 304L299 303z"/>
<path style="fill:#232323; stroke:none;" d="M321 303L322 304L321 303z"/>
<path style="fill:#1a1a1a; stroke:none;" d="M178 304L179 305L178 304M193 304L194 305L193 304M196 304L197 305L196 304z"/>
<path style="fill:#090909; stroke:none;" d="M206 304L204 307L206 304M224 304L225 305L224 304z"/>
<path style="fill:#101010; stroke:none;" d="M234 304L235 305L234 304M246 304L247 305L246 304z"/>
<path style="fill:#090909; stroke:none;" d="M268.333 304.667L268.667 305.333L268.333 304.667M277.333 304.667L277.667 305.333L277.333 304.667z"/>
<path style="fill:#1a1a1a; stroke:none;" d="M284 304L283 306L284 304z"/>
<path style="fill:#232323; stroke:none;" d="M297 304L298 305L297 304z"/>
<path style="fill:#090909; stroke:none;" d="M321 304L323 306L321 304z"/>
<path style="fill:#1a1a1a; stroke:none;" d="M322 304L323 305L322 304M179 305L180 306L179 305M194 305L195 306L194 305z"/>
<path style="fill:#101010; stroke:none;" d="M195 305L196 306L195 305z"/>
<path style="fill:#090909; stroke:none;" d="M244 305L245 306L244 305z"/>
<path style="fill:#101010; stroke:none;" d="M245 305L246 306L245 305z"/>
<path style="fill:#090909; stroke:none;" d="M296 305L294 308L296 305M179 306L180 307L179 306z"/>
<path style="fill:#101010; stroke:none;" d="M244 306L245 307L244 306z"/>
<path style="fill:#232323; stroke:none;" d="M277 306L278 307L277 306M282 306L283 307L282 306z"/>
<path style="fill:#101010; stroke:none;" d="M296 306L297 307L296 306z"/>
<path style="fill:#232323; stroke:none;" d="M323 306L324 307L323 306z"/>
<path style="fill:#090909; stroke:none;" d="M336 306L337 307L336 306z"/>
<path style="fill:#232323; stroke:none;" d="M180 307L181 308L180 307z"/>
<path style="fill:#090909; stroke:none;" d="M203.333 307.667L203.667 308.333L203.333 307.667z"/>
<path style="fill:#101010; stroke:none;" d="M225 307L226 308L225 307z"/>
<path style="fill:#090909; stroke:none;" d="M242 307L243 308L242 307z"/>
<path style="fill:#101010; stroke:none;" d="M243 307L244 308L243 307z"/>
<path style="fill:#1a1a1a; stroke:none;" d="M269 307L270 308L269 307M280 307L281 308L280 307z"/>
<path style="fill:#101010; stroke:none;" d="M295 307L296 308L295 307M323 307L324 308L323 307z"/>
<path style="fill:#1a1a1a; stroke:none;" d="M181 308L182 309L181 308z"/>
<path style="fill:#101010; stroke:none;" d="M242 308L243 309L242 308z"/>
<path style="fill:#090909; stroke:none;" d="M269 308L270 309L269 308M278 308L279 309L278 308M292.333 308.667L292.667 309.333L292.333 308.667z"/>
<path style="fill:#101010; stroke:none;" d="M293 308L294 309L293 308z"/>
<path style="fill:#232323; stroke:none;" d="M324 308L325 309L324 308z"/>
<path style="fill:#101010; stroke:none;" d="M182 309L182 310L186 310L182 309z"/>
<path style="fill:#1a1a1a; stroke:none;" d="M186 309L187 310L186 309z"/>
<path style="fill:#090909; stroke:none;" d="M202 309L203 310L202 309z"/>
<path style="fill:#101010; stroke:none;" d="M226 309L227 310L226 309z"/>
<path style="fill:#090909; stroke:none;" d="M240 309L238 312L240 309z"/>
<path style="fill:#101010; stroke:none;" d="M241 309L242 310L241 309M324 309L325 310L324 309z"/>
<path style="fill:#090909; stroke:none;" d="M335 309L336 310L335 309M187 310L188 311L187 310z"/>
<path style="fill:#1a1a1a; stroke:none;" d="M188 310L189 311L188 310z"/>
<path style="fill:#090909; stroke:none;" d="M201 310L200 312L202 312L201 310z"/>
<path style="fill:#1a1a1a; stroke:none;" d="M227 310L228 311L227 310z"/>
<path style="fill:#101010; stroke:none;" d="M240 310L241 311L240 310z"/>
<path style="fill:#232323; stroke:none;" d="M270 310L271 311L270 310z"/>
<path style="fill:#090909; stroke:none;" d="M290.667 310.333L291.333 310.667L290.667 310.333z"/>
<path style="fill:#232323; stroke:none;" d="M325 310L326 311L325 310z"/>
<path style="fill:#1a1a1a; stroke:none;" d="M189 311L190 312L189 311M228 311L229 312L228 311z"/>
<path style="fill:#090909; stroke:none;" d="M270 311L271 312L270 311M288 311L289 312L288 311z"/>
<path style="fill:#101010; stroke:none;" d="M289 311L290 312L289 311M325 311L326 312L325 311z"/>
<path style="fill:#1a1a1a; stroke:none;" d="M190 312L191 313L190 312z"/>
<path style="fill:#090909; stroke:none;" d="M199 312L200 313L199 312z"/>
<path style="fill:#101010; stroke:none;" d="M229 312L230 313L229 312z"/>
<path style="fill:#090909; stroke:none;" d="M236.667 312.333L237.333 312.667L236.667 312.333z"/>
<path style="fill:#1a1a1a; stroke:none;" d="M271 312L272 313L271 312z"/>
<path style="fill:#090909; stroke:none;" d="M287 312L288 313L287 312z"/>
<path style="fill:#232323; stroke:none;" d="M326 312L327 313L326 312z"/>
<path style="fill:#090909; stroke:none;" d="M334 312L333 314L334 312z"/>
<path style="fill:#101010; stroke:none;" d="M192 313L193 314L192 313z"/>
<path style="fill:#090909; stroke:none;" d="M198 313L199 314L198 313M235 313L236 314L235 313z"/>
<path style="fill:#1a1a1a; stroke:none;" d="M272 313L273 314L272 313z"/>
<path style="fill:#090909; stroke:none;" d="M285 313L286 314L285 313M326 313L327 314L326 313z"/>
<path style="fill:#1a1a1a; stroke:none;" d="M327 313L328 314L327 313M273 314L274 315L273 314z"/>
<path style="fill:#090909; stroke:none;" d="M284 314L285 315L284 314z"/>
<path style="fill:#101010; stroke:none;" d="M328.667 314.333L329.333 314.667L328.667 314.333z"/>
<path style="fill:#090909; stroke:none;" d="M330.667 314.333L331.333 314.667L330.667 314.333z"/>
<path style="fill:#1a1a1a; stroke:none;" d="M274 315L275 316L274 315z"/>
<path style="fill:#090909; stroke:none;" d="M281 315L282 316L281 315z"/>
<path style="fill:#101010; stroke:none;" d="M282 315L283 316L282 315z"/>
<path style="fill:#090909; stroke:none;" d="M283 315L284 316L283 315M275 316L275 317L281 317L275 316z"/>
</svg>
