<?xml version="1.0" standalone="yes"?>
<svg xmlns="http://www.w3.org/2000/svg" width="511" height="422">
<path style="fill:#010101; stroke:none;" d="M0 0L0 422L511 422L511 0L0 0z"/>
<path style="fill:#090a0a; stroke:none;" d="M113 22L115 24L113 22M92 26L93 27L92 26M97 26L98 27L97 26M123 27L125 29L123 27M144 27L145 28L144 27M161 27L162 28L161 27M164 27L165 28L164 27M62 28L63 29L62 28M67.6667 28.3333L68.3333 28.6667L67.6667 28.3333M117 28L114 30L114 31L117 28M186 28L185 30L186 28M216 28L216 29L229 29L216 28M411 28L411 29L445 29L411 28M70 29L71 30L70 29M81 29L83 31L81 29M85 29L86 30L85 29M214 29L215 30L214 29M400 29L400 30L407 30L400 29M408 29L409 30L408 29M446.667 29.3333L447.333 29.6667L446.667 29.3333M76 30L77 31L76 30M125 30L126 31L125 30M183 30L182 32L183 30M384 30L384 31L399 31L384 30M449 30L451 32L449 30M149 31L150 32L149 31M375 31L376 32L375 31M83 32L83 35L84 35L83 32M101 32L102 33L101 32M180 32L178 35L180 32M125 33L126 34L125 33M234 33L235 34L234 33M360 33L360 34L366 34L360 33M451 33L452 34L451 33M190 35L191 36L190 35M317 35L318 36L317 35M64 36L65 37L64 36M219 36L218 38L219 36M212 38L212 39L217 38L212 38M397 38L397 39L405 39L397 38M322 38L322 39L328 39L322 38z"/>
<path style="fill:#161616; stroke:none;" d="M384.667 38.3333L385.333 38.6667L384.667 38.3333z"/>
<path style="fill:#090a0a; stroke:none;" d="M437 38L437 39L455 39L437 38M72 39L71 41L72 39M184 39L183 42L184 42L184 39z"/>
<path style="fill:#222222; stroke:none;" d="M207 39L208 40L207 39z"/>
<path style="fill:#090a0a; stroke:none;" d="M319 39L320 40L319 39M374 39L374 40L378 40L374 39M456 39L457 40L456 39M179 42L179 43L182 43L179 42M177 43L178 44L177 43M170 47L171 48L170 47z"/>
<path style="fill:#161616; stroke:none;" d="M171 47L172 48L171 47z"/>
<path style="fill:#222222; stroke:none;" d="M346 48L347 49L346 48z"/>
<path style="fill:#161616; stroke:none;" d="M347 48L348 49L347 48z"/>
<path style="fill:#090a0a; stroke:none;" d="M199 50L200 51L199 50M460 50L461 51L460 50M289 54L290 55L289 54M482 55L484 57L482 55M332 58L330 59L330 60L332 58M345 59L346 60L345 59M439 59L440 60L439 59M255 61L256 62L255 61M125 63L124 65L125 63M357 65L357 66L377 64L357 65M71 64L70 66L71 64M245 64L245 65L249 65L245 64M280 64L282 66L282 64L280 64z"/>
<path style="fill:#161616; stroke:none;" d="M282 65L283 66L282 65z"/>
<path style="fill:#393939; stroke:none;" d="M283 65L283 66L287 66L283 65z"/>
<path style="fill:#222222; stroke:none;" d="M287 65L288 66L287 65z"/>
<path style="fill:#090a0a; stroke:none;" d="M434.667 65.3333L435.333 65.6667L434.667 65.3333M118 67L119 68L118 67M177 67L176 69L177 67M102 69L103 70L102 69M122 69L121 71L122 69M89 72L90 73L89 72M100 72L97 76L100 72z"/>
<path style="fill:#222222; stroke:none;" d="M429 72L430 73L429 72z"/>
<path style="fill:#393939; stroke:none;" d="M430 72L431 73L430 72z"/>
<path style="fill:#090a0a; stroke:none;" d="M431 72L432 73L431 72M134 73L135 74L134 73M289 78L290 79L289 78M301 79L302 80L301 79M358 79L359 80L358 79M410 79L411 80L410 79M413 80L414 81L413 80M479 85L480 86L479 85M413.333 95.6667L413.667 96.3333L413.333 95.6667M465 96L466 97L465 96M449 97L449 98L452 99L449 97M451 100L452 101L451 100M429 105L431 107L431 105L429 105z"/>
<path style="fill:#161616; stroke:none;" d="M430 107L431 108L430 107z"/>
<path style="fill:#090a0a; stroke:none;" d="M421.333 109.667L421.667 110.333L421.333 109.667z"/>
<path style="fill:#161616; stroke:none;" d="M422 110L423 111L422 110z"/>
<path style="fill:#090a0a; stroke:none;" d="M423 110L424 114L425 114L423 110z"/>
<path style="fill:#161616; stroke:none;" d="M424 112L425 113L424 112z"/>
<path style="fill:#090a0a; stroke:none;" d="M435 153L436 154L435 153M476 153L477 154L476 153M477 158L478 159L477 158M468 162L469 163L468 162M469 164L470 165L469 164M471 166L472 169L471 166M440 169L441 170L440 169M434.333 189.667L434.667 190.333L434.333 189.667M427 192L428 193L427 192M435 193L437 199L438 199L435 193M436.667 200.333L437.333 200.667L436.667 200.333M445 202L446 203L445 202M437 203L438 204L437 203M438 205L438 210L439 210L438 205M417 210L418 211L417 210z"/>
<path style="fill:#161616; stroke:none;" d="M439.333 210.667L439.667 211.333L439.333 210.667z"/>
<path style="fill:#090a0a; stroke:none;" d="M447 214L448 215L447 214M448 216L450 218L448 216M460 216L461 217L460 216M461 218L462 219L461 218M460 220L461 221L460 220M462 221L463 222L462 221M431 226L432 227L431 226M461 226L461 229L462 229L461 226M464.333 227.667L464.667 228.333L464.333 227.667M462 231L463 232L462 231M442 233L442 237L443 237L442 233M465 238L466 239L465 238M438 240L439 241L438 240M467.333 240.667L467.667 241.333L467.333 240.667M442 241L443 242L442 241M440 243L442 248L443 248L440 243M467 243L468 244L467 243M476 243L477 244L476 243M470 252L471 256L472 256L470 252M479 254L480 255L479 254M480 256L481 257L480 256M472 258L473 264L474 264L472 258M481.333 258.667L481.667 259.333L481.333 258.667M481 261L482 262L481 261M474 265L474 268L475 268L474 265M482 268L483 269L482 268M475 271L476 272L475 271M476 274L477 275L476 274M468 312L469 313L468 312z"/>
</svg>
