<?xml version="1.0" standalone="yes"?>
<svg xmlns="http://www.w3.org/2000/svg" width="393" height="417">
<path style="fill:#010101; stroke:none;" d="M0 0L0 417L393 417L393 0L0 0z"/>
<path style="fill:#dcdcdc; stroke:none;" d="M201 208L200 210L201 208z"/>
<path style="fill:#2a2a2a; stroke:none;" d="M202 208L203 209L202 208M209 208L210 209L209 208z"/>
<path style="fill:#8e8e8e; stroke:none;" d="M210 208L211 209L210 208z"/>
<path style="fill:#2a2a2a; stroke:none;" d="M211 209L212 210L211 209M200 210L201 211L200 210z"/>
<path style="fill:#8e8e8e; stroke:none;" d="M212 210L213 211L212 210z"/>
<path style="fill:#dcdcdc; stroke:none;" d="M176 211L177 212L176 211z"/>
<path style="fill:#8e8e8e; stroke:none;" d="M177 211L177 212L180 212L177 211z"/>
<path style="fill:#dcdcdc; stroke:none;" d="M180 211L181 212L180 211z"/>
<path style="fill:#8e8e8e; stroke:none;" d="M200 211L201 212L200 211z"/>
<path style="fill:#535353; stroke:none;" d="M203 211L204 212L203 211z"/>
<path style="fill:#8e8e8e; stroke:none;" d="M213 211L214 212L213 211z"/>
<path style="fill:#dcdcdc; stroke:none;" d="M173 212L174 213L173 212z"/>
<path style="fill:#8e8e8e; stroke:none;" d="M174 212L175 213L174 212z"/>
<path style="fill:#535353; stroke:none;" d="M175 212L176 213L175 212z"/>
<path style="fill:#2a2a2a; stroke:none;" d="M181 212L182 213L181 212z"/>
<path style="fill:#8e8e8e; stroke:none;" d="M210 212L212 214L210 212z"/>
<path style="fill:#2a2a2a; stroke:none;" d="M214 212L215 213L214 212z"/>
<path style="fill:#8e8e8e; stroke:none;" d="M215 212L216 213L215 212z"/>
<path style="fill:#dcdcdc; stroke:none;" d="M171 213L172 214L171 213z"/>
<path style="fill:#535353; stroke:none;" d="M172 213L173 214L172 213z"/>
<path style="fill:#dcdcdc; stroke:none;" d="M182 213L183 214L182 213z"/>
<path style="fill:#2a2a2a; stroke:none;" d="M170 214L171 215L170 214z"/>
<path style="fill:#8e8e8e; stroke:none;" d="M182.333 214.667L182.667 215.333L182.333 214.667M213 214L214 215L213 214z"/>
<path style="fill:#2a2a2a; stroke:none;" d="M169 215L170 216L169 215z"/>
<path style="fill:#dcdcdc; stroke:none;" d="M167 216L168 217L167 216z"/>
<path style="fill:#2a2a2a; stroke:none;" d="M168 216L169 217L168 216z"/>
<path style="fill:#dcdcdc; stroke:none;" d="M182 216L183 217L182 216M192 217L193 218L192 217z"/>
<path style="fill:#2a2a2a; stroke:none;" d="M193 217L194 218L193 217M200 217L201 218L200 217z"/>
<path style="fill:#535353; stroke:none;" d="M201 217L202 218L201 217z"/>
<path style="fill:#dcdcdc; stroke:none;" d="M202 217L203 218L202 217M165 218L166 219L165 218z"/>
<path style="fill:#2a2a2a; stroke:none;" d="M166 218L167 219L166 218z"/>
<path style="fill:#8e8e8e; stroke:none;" d="M177 219L177 220L181 219L177 219z"/>
<path style="fill:#dcdcdc; stroke:none;" d="M181 218L182 219L181 218z"/>
<path style="fill:#535353; stroke:none;" d="M192 218L193 219L192 218z"/>
<path style="fill:#2a2a2a; stroke:none;" d="M203 218L204 219L203 218z"/>
<path style="fill:#535353; stroke:none;" d="M204 218L205 219L204 218z"/>
<path style="fill:#dcdcdc; stroke:none;" d="M205 218L206 219L205 218z"/>
<path style="fill:#535353; stroke:none;" d="M165 219L166 220L165 219z"/>
<path style="fill:#2a2a2a; stroke:none;" d="M192 219L193 220L192 219M206 219L207 220L206 219z"/>
<path style="fill:#535353; stroke:none;" d="M207 219L208 220L207 219z"/>
<path style="fill:#dcdcdc; stroke:none;" d="M208 219L210 221L208 219M164 220L163 222L164 220z"/>
<path style="fill:#8e8e8e; stroke:none;" d="M175 220L176 221L175 220z"/>
<path style="fill:#dcdcdc; stroke:none;" d="M176 220L177 221L176 220z"/>
<path style="fill:#535353; stroke:none;" d="M192 220L193 221L192 220z"/>
<path style="fill:#2a2a2a; stroke:none;" d="M208 220L209 221L208 220M164 221L165 222L164 221z"/>
<path style="fill:#8e8e8e; stroke:none;" d="M174 221L175 222L174 221z"/>
<path style="fill:#dcdcdc; stroke:none;" d="M192 221L193 222L192 221z"/>
<path style="fill:#2a2a2a; stroke:none;" d="M209 221L210 222L209 221z"/>
<path style="fill:#535353; stroke:none;" d="M210 221L211 222L210 221z"/>
<path style="fill:#dcdcdc; stroke:none;" d="M211 221L212 222L211 221M219 221L219 222L222 222L219 221z"/>
<path style="fill:#8e8e8e; stroke:none;" d="M172 222L173 223L172 222z"/>
<path style="fill:#dcdcdc; stroke:none;" d="M201 222L202 223L201 222z"/>
<path style="fill:#2a2a2a; stroke:none;" d="M202 222L203 223L202 222z"/>
<path style="fill:#dcdcdc; stroke:none;" d="M212 222L213 223L212 222z"/>
<path style="fill:#535353; stroke:none;" d="M218 222L219 223L218 222z"/>
<path style="fill:#dcdcdc; stroke:none;" d="M223 222L225 224L223 222M162 223L163 224L162 223M171 223L172 224L171 223M204 223L205 224L204 223z"/>
<path style="fill:#2a2a2a; stroke:none;" d="M205 223L206 224L205 223z"/>
<path style="fill:#535353; stroke:none;" d="M212 223L213 224L212 223z"/>
<path style="fill:#dcdcdc; stroke:none;" d="M217 223L218 224L217 223z"/>
<path style="fill:#2a2a2a; stroke:none;" d="M223 223L224 224L223 223z"/>
<path style="fill:#535353; stroke:none;" d="M162 224L163 225L162 224z"/>
<path style="fill:#8e8e8e; stroke:none;" d="M170 224L171 225L170 224z"/>
<path style="fill:#dcdcdc; stroke:none;" d="M206 224L207 225L206 224z"/>
<path style="fill:#2a2a2a; stroke:none;" d="M207 224L208 225L207 224z"/>
<path style="fill:#8e8e8e; stroke:none;" d="M217.333 224.667L217.667 225.333L217.333 224.667M224 224L225 225L224 224z"/>
<path style="fill:#dcdcdc; stroke:none;" d="M161 225L160 227L161 225M170 225L171 226L170 225M208 225L209 226L208 225z"/>
<path style="fill:#2a2a2a; stroke:none;" d="M212 225L213 226L212 225M224 225L226 227L224 225z"/>
<path style="fill:#dcdcdc; stroke:none;" d="M225 225L226 226L225 225z"/>
<path style="fill:#2a2a2a; stroke:none;" d="M161 226L162 227L161 226z"/>
<path style="fill:#8e8e8e; stroke:none;" d="M169 226L170 227L169 226z"/>
<path style="fill:#2a2a2a; stroke:none;" d="M209 226L210 227L209 226z"/>
<path style="fill:#dcdcdc; stroke:none;" d="M212 226L213 227L212 226M217 226L218 227L217 226z"/>
<path style="fill:#535353; stroke:none;" d="M160 227L161 228L160 227z"/>
<path style="fill:#8e8e8e; stroke:none;" d="M168 227L169 228L168 227z"/>
<path style="fill:#2a2a2a; stroke:none;" d="M218 227L219 228L218 227z"/>
<path style="fill:#8e8e8e; stroke:none;" d="M226 227L227 228L226 227z"/>
<path style="fill:#dcdcdc; stroke:none;" d="M168 228L169 229L168 228z"/>
<path style="fill:#8e8e8e; stroke:none;" d="M218 228L219 229L218 228z"/>
<path style="fill:#2a2a2a; stroke:none;" d="M226 228L227 229L226 228z"/>
<path style="fill:#dcdcdc; stroke:none;" d="M159 229L158 231L159 229z"/>
<path style="fill:#8e8e8e; stroke:none;" d="M167 229L168 230L167 229M219 230L220 231L219 230M158 231L159 232L158 231M166.333 231.667L166.667 232.333L166.333 231.667z"/>
<path style="fill:#2a2a2a; stroke:none;" d="M220 231L221 232L220 231z"/>
<path style="fill:#8e8e8e; stroke:none;" d="M227 231L229 234L227 231z"/>
<path style="fill:#535353; stroke:none;" d="M158 232L159 233L158 232z"/>
<path style="fill:#8e8e8e; stroke:none;" d="M220 232L221 233L220 232z"/>
<path style="fill:#dcdcdc; stroke:none;" d="M156 233L157 234L156 233z"/>
<path style="fill:#8e8e8e; stroke:none;" d="M164 233L165 234L164 233M221 233L222 234L221 233M156 234L156 243L157 243L156 234z"/>
<path style="fill:#dcdcdc; stroke:none;" d="M164 234L165 235L164 234M221 234L222 235L221 234z"/>
<path style="fill:#2a2a2a; stroke:none;" d="M228 234L229 235L228 234z"/>
<path style="fill:#dcdcdc; stroke:none;" d="M229 234L230 235L229 234z"/>
<path style="fill:#8e8e8e; stroke:none;" d="M163 235L164 236L163 235z"/>
<path style="fill:#2a2a2a; stroke:none;" d="M222 235L223 236L222 235z"/>
<path style="fill:#8e8e8e; stroke:none;" d="M229 235L229 253L230 253L229 235z"/>
<path style="fill:#dcdcdc; stroke:none;" d="M222 236L223 237L222 236M163 240L167 244L163 240z"/>
<path style="fill:#2a2a2a; stroke:none;" d="M163 241L164 242L163 241M164 242L165 243L164 242z"/>
<path style="fill:#8e8e8e; stroke:none;" d="M179 242L179 243L190 243L179 242z"/>
<path style="fill:#dcdcdc; stroke:none;" d="M156 243L157 244L156 243z"/>
<path style="fill:#2a2a2a; stroke:none;" d="M165 243L166 244L165 243z"/>
<path style="fill:#dcdcdc; stroke:none;" d="M177 243L178 244L177 243z"/>
<path style="fill:#535353; stroke:none;" d="M178 243L179 244L178 243z"/>
<path style="fill:#2a2a2a; stroke:none;" d="M190 243L191 244L190 243z"/>
<path style="fill:#dcdcdc; stroke:none;" d="M191 243L192 244L191 243z"/>
<path style="fill:#8e8e8e; stroke:none;" d="M157 244L158 245L157 244M167 244L168 245L167 244z"/>
<path style="fill:#dcdcdc; stroke:none;" d="M168 244L169 245L168 244M174 244L175 245L174 244z"/>
<path style="fill:#2a2a2a; stroke:none;" d="M175 244L176 245L175 244z"/>
<path style="fill:#dcdcdc; stroke:none;" d="M193 244L194 245L193 244M157 245L160 248L157 245z"/>
<path style="fill:#2a2a2a; stroke:none;" d="M158 245L159 246L158 245M169 245L170 246L169 245z"/>
<path style="fill:#8e8e8e; stroke:none;" d="M170 245L170 246L173 246L170 245z"/>
<path style="fill:#535353; stroke:none;" d="M173 245L174 246L173 245z"/>
<path style="fill:#2a2a2a; stroke:none;" d="M194 245L197 248L194 245z"/>
<path style="fill:#dcdcdc; stroke:none;" d="M195 245L196 246L195 245z"/>
<path style="fill:#2a2a2a; stroke:none;" d="M159 246L160 247L159 246z"/>
<path style="fill:#dcdcdc; stroke:none;" d="M196 246L197 247L196 246z"/>
<path style="fill:#2a2a2a; stroke:none;" d="M160 248L164 252L160 248M197 248L200 251L197 248z"/>
<path style="fill:#dcdcdc; stroke:none;" d="M198 248L199 249L198 248M160 249L161 250L160 249z"/>
<path style="fill:#8e8e8e; stroke:none;" d="M182 249L182 250L187 250L182 249z"/>
<path style="fill:#2a2a2a; stroke:none;" d="M187 249L188 250L187 249z"/>
<path style="fill:#dcdcdc; stroke:none;" d="M199 249L200 250L199 249M205 249L206 250L205 249z"/>
<path style="fill:#8e8e8e; stroke:none;" d="M206 249L206 250L215 250L206 249z"/>
<path style="fill:#dcdcdc; stroke:none;" d="M215 249L216 250L215 249M161 250L162 251L161 250z"/>
<path style="fill:#8e8e8e; stroke:none;" d="M180 250L181 251L180 250z"/>
<path style="fill:#dcdcdc; stroke:none;" d="M181 250L182 251L181 250M187 250L188 251L187 250z"/>
<path style="fill:#8e8e8e; stroke:none;" d="M188 250L189 251L188 250z"/>
<path style="fill:#2a2a2a; stroke:none;" d="M189 250L190 251L189 250z"/>
<path style="fill:#dcdcdc; stroke:none;" d="M203 250L204 251L203 250z"/>
<path style="fill:#535353; stroke:none;" d="M204 250L205 251L204 250z"/>
<path style="fill:#dcdcdc; stroke:none;" d="M216 250L217 251L216 250M162 251L163 252L162 251z"/>
<path style="fill:#8e8e8e; stroke:none;" d="M179 251L180 252L179 251z"/>
<path style="fill:#dcdcdc; stroke:none;" d="M189 251L190 252L189 251M200.667 251.333L201.333 251.667L200.667 251.333z"/>
<path style="fill:#535353; stroke:none;" d="M202 251L203 252L202 251z"/>
<path style="fill:#dcdcdc; stroke:none;" d="M217 251L218 252L217 251M222 251L223 252L222 251M166 252L167 253L166 252z"/>
<path style="fill:#8e8e8e; stroke:none;" d="M167 252L167 253L177 253L167 252z"/>
<path style="fill:#dcdcdc; stroke:none;" d="M177 252L178 253L177 252M191 252L193 254L191 252z"/>
<path style="fill:#2a2a2a; stroke:none;" d="M192 252L193 253L192 252z"/>
<path style="fill:#dcdcdc; stroke:none;" d="M229 253L230 254L229 253z"/>
<path style="fill:#8e8e8e; stroke:none;" d="M193 254L195 256L193 254z"/>
<path style="fill:#2a2a2a; stroke:none;" d="M194 254L195 255L194 254z"/>
<path style="fill:#8e8e8e; stroke:none;" d="M228.333 254.667L228.667 255.333L228.333 254.667z"/>
<path style="fill:#dcdcdc; stroke:none;" d="M194 256L197 259L194 256z"/>
<path style="fill:#2a2a2a; stroke:none;" d="M195 256L196 257L195 256z"/>
<path style="fill:#8e8e8e; stroke:none;" d="M209 256L209 257L212 257L209 256z"/>
<path style="fill:#2a2a2a; stroke:none;" d="M212 256L214 258L212 256z"/>
<path style="fill:#dcdcdc; stroke:none;" d="M228 256L229 257L228 256z"/>
<path style="fill:#2a2a2a; stroke:none;" d="M196 257L197 258L196 257z"/>
<path style="fill:#8e8e8e; stroke:none;" d="M207 257L208 258L207 257z"/>
<path style="fill:#dcdcdc; stroke:none;" d="M208 257L209 258L208 257M212 257L213 258L212 257z"/>
<path style="fill:#8e8e8e; stroke:none;" d="M227 257L228 258L227 257z"/>
<path style="fill:#2a2a2a; stroke:none;" d="M197 258L198 259L197 258z"/>
<path style="fill:#8e8e8e; stroke:none;" d="M206 258L207 259L206 258z"/>
<path style="fill:#dcdcdc; stroke:none;" d="M213 258L214 259L213 258z"/>
<path style="fill:#8e8e8e; stroke:none;" d="M214 258L215 259L214 258z"/>
<path style="fill:#2a2a2a; stroke:none;" d="M215 258L216 259L215 258z"/>
</svg>
