<?xml version="1.0" standalone="yes"?>
<svg xmlns="http://www.w3.org/2000/svg" width="465" height="427">
<path style="fill:#010101; stroke:none;" d="M0 0L0 427L465 427L465 0L0 0z"/>
<path style="fill:#dedede; stroke:none;" d="M229 200L230 201L229 200z"/>
<path style="fill:#484848; stroke:none;" d="M230 200L231 201L230 200z"/>
<path style="fill:#dedede; stroke:none;" d="M234 200L236 202L234 200z"/>
<path style="fill:#484848; stroke:none;" d="M229 201L230 202L229 201M234 201L235 202L234 201z"/>
<path style="fill:#8a8a8a; stroke:none;" d="M235 202L235 209L236 209L235 202z"/>
<path style="fill:#dedede; stroke:none;" d="M228 205L225 209L228 205M272 205L273 206L272 205z"/>
<path style="fill:#484848; stroke:none;" d="M273 205L274 206L273 205M277 205L278 206L277 205z"/>
<path style="fill:#dedede; stroke:none;" d="M278 205L279 206L278 205z"/>
<path style="fill:#484848; stroke:none;" d="M228 206L229 207L228 206M272 206L273 207L272 206M279 206L283 210L279 206z"/>
<path style="fill:#dedede; stroke:none;" d="M280 206L281 207L280 206z"/>
<path style="fill:#484848; stroke:none;" d="M227 207L228 208L227 207z"/>
<path style="fill:#dedede; stroke:none;" d="M281 207L282 208L281 207z"/>
<path style="fill:#484848; stroke:none;" d="M226 208L227 209L226 208z"/>
<path style="fill:#dedede; stroke:none;" d="M282 208L283 209L282 208M223 209L224 210L223 209z"/>
<path style="fill:#484848; stroke:none;" d="M224 209L225 210L224 209z"/>
<path style="fill:#dedede; stroke:none;" d="M235 209L236 210L235 209M219 210L220 211L219 210z"/>
<path style="fill:#8a8a8a; stroke:none;" d="M220.667 210.333L221.333 210.667L220.667 210.333z"/>
<path style="fill:#484848; stroke:none;" d="M222 210L223 211L222 210z"/>
<path style="fill:#dedede; stroke:none;" d="M272 210L275 213L272 210z"/>
<path style="fill:#484848; stroke:none;" d="M284 210L285 211L284 210z"/>
<path style="fill:#8a8a8a; stroke:none;" d="M285 210L286 211L285 210z"/>
<path style="fill:#dedede; stroke:none;" d="M286 210L287 211L286 210M217 211L218 212L217 211z"/>
<path style="fill:#484848; stroke:none;" d="M218 211L219 212L218 211z"/>
<path style="fill:#8a8a8a; stroke:none;" d="M233 211L234 212L233 211z"/>
<path style="fill:#484848; stroke:none;" d="M287 211L288 212L287 211z"/>
<path style="fill:#dedede; stroke:none;" d="M212 212L213 213L212 212z"/>
<path style="fill:#8a8a8a; stroke:none;" d="M213 212L213 213L216 213L213 212z"/>
<path style="fill:#484848; stroke:none;" d="M216 212L217 213L216 212z"/>
<path style="fill:#8a8a8a; stroke:none;" d="M232 212L233 213L232 212M275 212L276 213L275 212z"/>
<path style="fill:#dedede; stroke:none;" d="M288 212L289 213L288 212M211 213L212 214L211 213z"/>
<path style="fill:#8a8a8a; stroke:none;" d="M231 213L232 214L231 213z"/>
<path style="fill:#dedede; stroke:none;" d="M276 213L277 214L276 213z"/>
<path style="fill:#8a8a8a; stroke:none;" d="M288 213L288 216L289 216L288 213z"/>
<path style="fill:#484848; stroke:none;" d="M209 214L210 215L209 214z"/>
<path style="fill:#dedede; stroke:none;" d="M229 214L230 215L229 214M232 214L233 215L232 214z"/>
<path style="fill:#8a8a8a; stroke:none;" d="M233 214L233 215L259 215L233 214z"/>
<path style="fill:#dedede; stroke:none;" d="M259 214L260 215L259 214M277 214L278 215L277 214M208 215L209 216L208 215z"/>
<path style="fill:#484848; stroke:none;" d="M227 215L228 216L227 215z"/>
<path style="fill:#727272; stroke:none;" d="M228 215L229 216L228 215z"/>
<path style="fill:#8a8a8a; stroke:none;" d="M229.667 215.333L230.333 215.667L229.667 215.333z"/>
<path style="fill:#484848; stroke:none;" d="M231 215L232 216L231 215M260 215L261 216L260 215z"/>
<path style="fill:#8a8a8a; stroke:none;" d="M261 215L261 216L267 216L261 215z"/>
<path style="fill:#dedede; stroke:none;" d="M267 215L268 216L267 215M278 215L279 216L278 215z"/>
<path style="fill:#8a8a8a; stroke:none;" d="M279 215L280 216L279 215M208 216L209 217L208 216z"/>
<path style="fill:#484848; stroke:none;" d="M268 216L269 217L268 216z"/>
<path style="fill:#8a8a8a; stroke:none;" d="M269 216L269 217L274 217L269 216z"/>
<path style="fill:#dedede; stroke:none;" d="M274 216L275 217L274 216M280 216L281 217L280 216M288 216L289 217L288 216M208.333 217.667L208.667 218.333L208.333 217.667z"/>
<path style="fill:#484848; stroke:none;" d="M275 217L276 218L275 217z"/>
<path style="fill:#dedede; stroke:none;" d="M276 217L277 218L276 217M281.333 217.667L281.667 218.333L281.333 217.667z"/>
<path style="fill:#8a8a8a; stroke:none;" d="M282 217L283 218L282 217M277 218L277 219L281 219L277 218z"/>
<path style="fill:#dedede; stroke:none;" d="M283 218L284 219L283 218z"/>
<path style="fill:#8a8a8a; stroke:none;" d="M284 218L284 219L287 220L284 218z"/>
<path style="fill:#dedede; stroke:none;" d="M287 218L288 219L287 218M204 219L205 220L204 219z"/>
<path style="fill:#8a8a8a; stroke:none;" d="M205 219L206 220L205 219z"/>
<path style="fill:#484848; stroke:none;" d="M206 219L207 220L206 219z"/>
<path style="fill:#dedede; stroke:none;" d="M202 220L203 221L202 220z"/>
<path style="fill:#484848; stroke:none;" d="M203 220L204 221L203 220M287 220L288 221L287 220z"/>
<path style="fill:#8a8a8a; stroke:none;" d="M288 220L289 221L288 220z"/>
<path style="fill:#dedede; stroke:none;" d="M289 220L290 221L289 220M200 221L201 222L200 221z"/>
<path style="fill:#8a8a8a; stroke:none;" d="M201 221L202 222L201 221z"/>
<path style="fill:#727272; stroke:none;" d="M234 221L235 222L234 221z"/>
<path style="fill:#8a8a8a; stroke:none;" d="M235 221L235 222L256 222L235 221z"/>
<path style="fill:#727272; stroke:none;" d="M256 221L257 222L256 221z"/>
<path style="fill:#484848; stroke:none;" d="M290 221L291 222L290 221z"/>
<path style="fill:#dedede; stroke:none;" d="M291 221L292 222L291 221M198 222L197 224L198 222z"/>
<path style="fill:#484848; stroke:none;" d="M199 222L200 223L199 222M226 222L227 223L226 222z"/>
<path style="fill:#8a8a8a; stroke:none;" d="M227 222L227 223L234 223L227 222z"/>
<path style="fill:#dedede; stroke:none;" d="M257 222L258 223L257 222z"/>
<path style="fill:#8a8a8a; stroke:none;" d="M258 222L258 223L265 223L258 222z"/>
<path style="fill:#727272; stroke:none;" d="M265 222L266 223L265 222z"/>
<path style="fill:#484848; stroke:none;" d="M292 222L293 223L292 222M198 223L199 224L198 223z"/>
<path style="fill:#727272; stroke:none;" d="M218 223L219 224L218 223z"/>
<path style="fill:#8a8a8a; stroke:none;" d="M219 223L219 224L225 224L219 223z"/>
<path style="fill:#dedede; stroke:none;" d="M225 223L226 224L225 223z"/>
<path style="fill:#8a8a8a; stroke:none;" d="M266 223L266 224L272 224L266 223z"/>
<path style="fill:#484848; stroke:none;" d="M293 223L294 224L293 223z"/>
<path style="fill:#8a8a8a; stroke:none;" d="M294 223L295 224L294 223z"/>
<path style="fill:#dedede; stroke:none;" d="M295 223L296 224L295 223M194 224L190 229L194 224z"/>
<path style="fill:#484848; stroke:none;" d="M195 224L196 225L195 224z"/>
<path style="fill:#727272; stroke:none;" d="M211 224L212 225L211 224z"/>
<path style="fill:#8a8a8a; stroke:none;" d="M212.667 224.333L213.333 224.667L212.667 224.333z"/>
<path style="fill:#dedede; stroke:none;" d="M214 224L215 225L214 224M274 224L275 225L274 224z"/>
<path style="fill:#8a8a8a; stroke:none;" d="M275 224L275 225L279 225L275 224z"/>
<path style="fill:#727272; stroke:none;" d="M279 224L280 225L279 224z"/>
<path style="fill:#484848; stroke:none;" d="M298 224L301 227L298 224M194 225L195 226L194 225z"/>
<path style="fill:#8a8a8a; stroke:none;" d="M210 225L211 226L210 225z"/>
<path style="fill:#dedede; stroke:none;" d="M280 225L281 226L280 225z"/>
<path style="fill:#8a8a8a; stroke:none;" d="M281.667 225.333L282.333 225.667L281.667 225.333z"/>
<path style="fill:#dedede; stroke:none;" d="M300 225L301 226L300 225z"/>
<path style="fill:#8a8a8a; stroke:none;" d="M207.667 226.333L208.333 226.667L207.667 226.333z"/>
<path style="fill:#dedede; stroke:none;" d="M209 226L210 227L209 226M283 226L284 227L283 226M301 226L302 227L301 226z"/>
<path style="fill:#727272; stroke:none;" d="M205 227L206 228L205 227z"/>
<path style="fill:#dedede; stroke:none;" d="M206 227L207 228L206 227M284 227L285 228L284 227z"/>
<path style="fill:#8a8a8a; stroke:none;" d="M285.667 227.333L286.333 227.667L285.667 227.333z"/>
<path style="fill:#727272; stroke:none;" d="M287 227L288 228L287 227z"/>
<path style="fill:#484848; stroke:none;" d="M302 227L304 229L302 227z"/>
<path style="fill:#dedede; stroke:none;" d="M303 227L304 228L303 227z"/>
<path style="fill:#727272; stroke:none;" d="M203 228L204 229L203 228z"/>
<path style="fill:#dedede; stroke:none;" d="M204 228L205 229L204 228z"/>
<path style="fill:#727272; stroke:none;" d="M288 228L289 229L288 228z"/>
<path style="fill:#484848; stroke:none;" d="M189 229L190 230L189 229z"/>
<path style="fill:#727272; stroke:none;" d="M200 229L201 230L200 229z"/>
<path style="fill:#8a8a8a; stroke:none;" d="M201 229L202 230L201 229z"/>
<path style="fill:#dedede; stroke:none;" d="M291 229L292 230L291 229z"/>
<path style="fill:#8a8a8a; stroke:none;" d="M292 229L293 230L292 229z"/>
<path style="fill:#dedede; stroke:none;" d="M305 229L309 233L305 229M188 230L189 231L188 230z"/>
<path style="fill:#8a8a8a; stroke:none;" d="M199 230L200 231L199 230M293 230L294 231L293 230z"/>
<path style="fill:#484848; stroke:none;" d="M305 230L306 231L305 230z"/>
<path style="fill:#dedede; stroke:none;" d="M187 231L186 233L187 231z"/>
<path style="fill:#8a8a8a; stroke:none;" d="M197 231L198 232L197 231z"/>
<path style="fill:#dedede; stroke:none;" d="M198 231L199 232L198 231M294 231L295 232L294 231z"/>
<path style="fill:#8a8a8a; stroke:none;" d="M295 231L296 232L295 231z"/>
<path style="fill:#484848; stroke:none;" d="M306 231L307 232L306 231M187 232L188 233L187 232z"/>
<path style="fill:#8a8a8a; stroke:none;" d="M196 232L197 233L196 232z"/>
<path style="fill:#dedede; stroke:none;" d="M296 232L297 233L296 232z"/>
<path style="fill:#8a8a8a; stroke:none;" d="M297 232L298 233L297 232z"/>
<path style="fill:#484848; stroke:none;" d="M307 232L308 233L307 232z"/>
<path style="fill:#dedede; stroke:none;" d="M185 233L186 234L185 233z"/>
<path style="fill:#8a8a8a; stroke:none;" d="M195 233L196 234L195 233M308 233L308 247L309 247L308 233M185 234L185 247L186 247L185 234M194 234L195 235L194 234z"/>
<path style="fill:#dedede; stroke:none;" d="M299 234L301 236L299 234z"/>
<path style="fill:#8a8a8a; stroke:none;" d="M193 235L194 236L193 235z"/>
<path style="fill:#dedede; stroke:none;" d="M193 236L194 237L193 236z"/>
<path style="fill:#8a8a8a; stroke:none;" d="M301 236L301 244L302 244L301 236z"/>
<path style="fill:#727272; stroke:none;" d="M192 237L193 238L192 237z"/>
<path style="fill:#8a8a8a; stroke:none;" d="M192 238L192 245L193 245L192 238z"/>
<path style="fill:#dedede; stroke:none;" d="M300 244L301 245L300 244z"/>
<path style="fill:#484848; stroke:none;" d="M192 245L194 247L192 245z"/>
<path style="fill:#dedede; stroke:none;" d="M193 245L194 246L193 245M223 245L222 247L223 245z"/>
<path style="fill:#8a8a8a; stroke:none;" d="M224 245L224 246L227 246L224 245z"/>
<path style="fill:#dedede; stroke:none;" d="M227 245L228 246L227 245M260 245L261 246L260 245z"/>
<path style="fill:#8a8a8a; stroke:none;" d="M261.667 245.333L262.333 245.667L261.667 245.333z"/>
<path style="fill:#dedede; stroke:none;" d="M263 245L264 246L263 245z"/>
<path style="fill:#484848; stroke:none;" d="M300 245L301 246L300 245z"/>
<path style="fill:#dedede; stroke:none;" d="M194 246L195 247L194 246z"/>
<path style="fill:#484848; stroke:none;" d="M228 246L229 247L228 246z"/>
<path style="fill:#dedede; stroke:none;" d="M258 246L259 247L258 246z"/>
<path style="fill:#484848; stroke:none;" d="M259 246L260 247L259 246M264 246L265 247L264 246z"/>
<path style="fill:#dedede; stroke:none;" d="M265 246L266 247L265 246M299 246L300 247L299 246M185.333 247.667L185.667 248.333L185.333 247.667z"/>
<path style="fill:#8a8a8a; stroke:none;" d="M194 247L194 250L195 250L194 247z"/>
<path style="fill:#dedede; stroke:none;" d="M219 247L218 249L219 247z"/>
<path style="fill:#484848; stroke:none;" d="M220 247L221 248L220 247M229 247L230 248L229 247z"/>
<path style="fill:#dedede; stroke:none;" d="M230 247L231 248L230 247M257 247L258 248L257 247z"/>
<path style="fill:#8a8a8a; stroke:none;" d="M307 247L308 248L307 247M230 248L230 255L231 255L230 248M257 248L257 254L258 254L257 248z"/>
<path style="fill:#dedede; stroke:none;" d="M298 248L295 252L298 248z"/>
<path style="fill:#727272; stroke:none;" d="M306 248L307 249L306 248z"/>
<path style="fill:#dedede; stroke:none;" d="M186 249L187 250L186 249z"/>
<path style="fill:#484848; stroke:none;" d="M218 249L219 250L218 249z"/>
<path style="fill:#dedede; stroke:none;" d="M266 249L267 250L266 249z"/>
<path style="fill:#8a8a8a; stroke:none;" d="M306 249L307 250L306 249M187.333 250.667L187.667 251.333L187.333 250.667z"/>
<path style="fill:#484848; stroke:none;" d="M194 250L195 251L194 250z"/>
<path style="fill:#dedede; stroke:none;" d="M195 250L196 251L195 250z"/>
<path style="fill:#8a8a8a; stroke:none;" d="M266 250L266 261L267 261L266 250z"/>
<path style="fill:#484848; stroke:none;" d="M297 250L298 251L297 250z"/>
<path style="fill:#dedede; stroke:none;" d="M306 250L307 251L306 250z"/>
<path style="fill:#8a8a8a; stroke:none;" d="M195 251L196 252L195 251z"/>
<path style="fill:#dedede; stroke:none;" d="M217 251L216 253L217 251z"/>
<path style="fill:#484848; stroke:none;" d="M296 251L297 252L296 251z"/>
<path style="fill:#8a8a8a; stroke:none;" d="M305 251L306 252L305 251z"/>
<path style="fill:#dedede; stroke:none;" d="M187.333 252.667L187.667 253.333L187.333 252.667z"/>
<path style="fill:#484848; stroke:none;" d="M195 252L196 253L195 252z"/>
<path style="fill:#dedede; stroke:none;" d="M293 252L294 253L293 252z"/>
<path style="fill:#484848; stroke:none;" d="M294 252L295 253L294 252z"/>
<path style="fill:#8a8a8a; stroke:none;" d="M216 253L216 257L217 257L216 253M303 253L304 254L303 253M188 254L189 255L188 254z"/>
<path style="fill:#dedede; stroke:none;" d="M196 254L198 256L196 254M257.333 254.667L257.667 255.333L257.333 254.667M292 254L291 256L292 254M303 254L304 255L303 254M188 255L189 256L188 255z"/>
<path style="fill:#484848; stroke:none;" d="M196 255L197 256L196 255z"/>
<path style="fill:#dedede; stroke:none;" d="M230 255L231 256L230 255z"/>
<path style="fill:#8a8a8a; stroke:none;" d="M302 255L303 256L302 255M189 256L190 257L189 256M197 256L198 257L197 256M229 256L230 257L229 256z"/>
<path style="fill:#dedede; stroke:none;" d="M258.333 256.667L258.667 257.333L258.333 256.667z"/>
<path style="fill:#8a8a8a; stroke:none;" d="M290 256L291 257L290 256M301 256L302 257L301 256z"/>
<path style="fill:#dedede; stroke:none;" d="M189 257L190 258L189 257z"/>
<path style="fill:#484848; stroke:none;" d="M197 257L198 258L197 257z"/>
<path style="fill:#dedede; stroke:none;" d="M198 257L198 258L202 259L202 258L198 257M216.333 257.667L216.667 258.333L216.333 257.667z"/>
<path style="fill:#8a8a8a; stroke:none;" d="M228 257L229 258L228 257z"/>
<path style="fill:#484848; stroke:none;" d="M259 257L260 258L259 257M288 257L289 258L288 257z"/>
<path style="fill:#dedede; stroke:none;" d="M299 257L300 258L299 257M190 258L191 259L190 258z"/>
<path style="fill:#8a8a8a; stroke:none;" d="M198 258L199 259L198 258M227.333 258.667L227.667 259.333L227.333 258.667z"/>
<path style="fill:#484848; stroke:none;" d="M258 258L259 259L258 258z"/>
<path style="fill:#8a8a8a; stroke:none;" d="M298 258L299 259L298 258z"/>
<path style="fill:#dedede; stroke:none;" d="M202 259L204 261L202 259z"/>
<path style="fill:#8a8a8a; stroke:none;" d="M217 259L218 260L217 259z"/>
<path style="fill:#dedede; stroke:none;" d="M257 259L258 260L257 259M286 259L287 260L286 259z"/>
<path style="fill:#484848; stroke:none;" d="M287 259L288 260L287 259z"/>
<path style="fill:#8a8a8a; stroke:none;" d="M297 259L298 260L297 259z"/>
<path style="fill:#484848; stroke:none;" d="M202 260L203 261L202 260z"/>
<path style="fill:#dedede; stroke:none;" d="M217 260L218 261L217 260M227 260L228 261L227 260z"/>
<path style="fill:#8a8a8a; stroke:none;" d="M257 260L258 261L257 260z"/>
<path style="fill:#dedede; stroke:none;" d="M284 260L285 261L284 260z"/>
<path style="fill:#484848; stroke:none;" d="M285 260L286 261L285 260z"/>
<path style="fill:#8a8a8a; stroke:none;" d="M296 260L297 261L296 260M203 261L203 264L204 264L203 261M226 261L227 262L226 261z"/>
<path style="fill:#dedede; stroke:none;" d="M257 261L258 262L257 261M266 261L267 262L266 261z"/>
<path style="fill:#484848; stroke:none;" d="M283 261L284 262L283 261z"/>
<path style="fill:#8a8a8a; stroke:none;" d="M295 261L296 262L295 261z"/>
<path style="fill:#dedede; stroke:none;" d="M191 262L192 263L191 262M219 262L220 263L219 262z"/>
<path style="fill:#8a8a8a; stroke:none;" d="M220 262L220 263L224 263L220 262z"/>
<path style="fill:#dedede; stroke:none;" d="M224 262L225 263L224 262M258 262L259 263L258 262z"/>
<path style="fill:#8a8a8a; stroke:none;" d="M265 262L266 263L265 262z"/>
<path style="fill:#dedede; stroke:none;" d="M278 262L277 264L278 262z"/>
<path style="fill:#484848; stroke:none;" d="M279 262L280 263L279 262z"/>
<path style="fill:#8a8a8a; stroke:none;" d="M293 262L294 263L293 262M192 263L193 264L192 263z"/>
<path style="fill:#dedede; stroke:none;" d="M259 263L260 264L259 263z"/>
<path style="fill:#8a8a8a; stroke:none;" d="M260 263L260 264L264 264L260 263z"/>
<path style="fill:#dedede; stroke:none;" d="M264 263L265 264L264 263z"/>
<path style="fill:#484848; stroke:none;" d="M278 263L279 264L278 263z"/>
<path style="fill:#dedede; stroke:none;" d="M192 264L193 265L192 264M203 264L204 265L203 264M274 264L275 265L274 264z"/>
<path style="fill:#8a8a8a; stroke:none;" d="M275.667 264.333L276.333 264.667L275.667 264.333M292 264L293 265L292 264z"/>
<path style="fill:#dedede; stroke:none;" d="M193 265L194 266L193 265z"/>
<path style="fill:#8a8a8a; stroke:none;" d="M202 265L203 266L202 265z"/>
<path style="fill:#dedede; stroke:none;" d="M272 265L273 266L272 265z"/>
<path style="fill:#484848; stroke:none;" d="M273 265L274 266L273 265z"/>
<path style="fill:#727272; stroke:none;" d="M290 265L291 266L290 265z"/>
<path style="fill:#dedede; stroke:none;" d="M291 265L292 266L291 265M195 266L196 267L195 266z"/>
<path style="fill:#8a8a8a; stroke:none;" d="M196 266L196 267L201 267L196 266z"/>
<path style="fill:#dedede; stroke:none;" d="M201 266L202 267L201 266M268 266L269 267L268 266z"/>
<path style="fill:#8a8a8a; stroke:none;" d="M269 266L270 267L269 266z"/>
<path style="fill:#484848; stroke:none;" d="M270 266L271 267L270 266z"/>
<path style="fill:#dedede; stroke:none;" d="M288 266L287 268L288 266M266 267L267 268L266 267z"/>
<path style="fill:#484848; stroke:none;" d="M267 267L268 268L267 267M285 267L286 268L285 267z"/>
<path style="fill:#8a8a8a; stroke:none;" d="M286 267L287 268L286 267z"/>
<path style="fill:#dedede; stroke:none;" d="M265 268L266 269L265 268z"/>
<path style="fill:#8a8a8a; stroke:none;" d="M283 268L284 269L283 268z"/>
<path style="fill:#dedede; stroke:none;" d="M284 268L285 269L284 268M261 269L262 270L261 269z"/>
<path style="fill:#8a8a8a; stroke:none;" d="M262.667 269.333L263.333 269.667L262.667 269.333z"/>
<path style="fill:#484848; stroke:none;" d="M264 269L265 270L264 269z"/>
<path style="fill:#dedede; stroke:none;" d="M259 270L260 271L259 270z"/>
<path style="fill:#8a8a8a; stroke:none;" d="M260 270L261 271L260 270z"/>
<path style="fill:#727272; stroke:none;" d="M280 270L281 271L280 270z"/>
<path style="fill:#8a8a8a; stroke:none;" d="M281 270L282 271L281 270z"/>
<path style="fill:#dedede; stroke:none;" d="M282 270L283 271L282 270z"/>
<path style="fill:#484848; stroke:none;" d="M257 271L258 272L257 271M276 271L277 272L276 271z"/>
<path style="fill:#dedede; stroke:none;" d="M256 272L257 273L256 272z"/>
<path style="fill:#727272; stroke:none;" d="M273 272L274 273L273 272z"/>
<path style="fill:#8a8a8a; stroke:none;" d="M274 272L275 273L274 272z"/>
<path style="fill:#dedede; stroke:none;" d="M275 272L276 273L275 272z"/>
<path style="fill:#8a8a8a; stroke:none;" d="M256 273L257 274L256 273z"/>
<path style="fill:#727272; stroke:none;" d="M271 273L272 274L271 273z"/>
<path style="fill:#dedede; stroke:none;" d="M272 273L273 274L272 273M256.333 274.667L256.667 275.333L256.333 274.667z"/>
<path style="fill:#8a8a8a; stroke:none;" d="M270 274L271 275L270 274z"/>
<path style="fill:#727272; stroke:none;" d="M267 275L268 276L267 275z"/>
<path style="fill:#8a8a8a; stroke:none;" d="M268 275L269 276L268 275z"/>
<path style="fill:#dedede; stroke:none;" d="M269 275L270 276L269 275M258 276L259 277L258 276z"/>
<path style="fill:#8a8a8a; stroke:none;" d="M259 276L259 277L264 277L259 276z"/>
<path style="fill:#dedede; stroke:none;" d="M264 276L265 277L264 276z"/>
</svg>
