<?xml version="1.0" standalone="yes"?>
<svg xmlns="http://www.w3.org/2000/svg" width="496" height="428">
<path style="fill:#010101; stroke:none;" d="M0 0L0 428L496 428L496 0L0 0z"/>
<path style="fill:#0d0a0a; stroke:none;" d="M264 218L266 220L264 218z"/>
<path style="fill:#200e02; stroke:none;" d="M231 219L231 220L234 220L231 219z"/>
<path style="fill:#0d0a0a; stroke:none;" d="M292 219L291 221L292 219M230 220L231 221L230 220M229 221L230 222L229 221z"/>
<path style="fill:#111015; stroke:none;" d="M228 222L229 223L228 222z"/>
<path style="fill:#0d0a0a; stroke:none;" d="M228.333 223.667L228.667 224.333L228.333 223.667M266 226L267 227L266 226M290 226L291 227L290 226M235 228L236 229L235 228M265 228L264 233L265 233L265 228M289 229L290 230L289 229M297 230L298 231L297 230M254 231L255 232L254 231M288.333 232.667L288.667 233.333L288.333 232.667M253 233L254 234L253 233z"/>
<path style="fill:#19191c; stroke:none;" d="M264 233L264 237L265 237L264 233z"/>
<path style="fill:#0d0a0a; stroke:none;" d="M296 233L297 234L296 233M287 235L288 236L287 235M252 236L253 237L252 236z"/>
<path style="fill:#111015; stroke:none;" d="M264 237L264 241L265 241L264 237z"/>
<path style="fill:#0d0a0a; stroke:none;" d="M286 237L287 238L286 237M295 237L296 238L295 237M251 238L252 239L251 238z"/>
<path style="fill:#111015; stroke:none;" d="M251 239L252 240L251 239z"/>
<path style="fill:#0d0a0a; stroke:none;" d="M294 239L295 240L294 239M250 240L251 241L250 240M285 240L286 241L285 240M249 241L250 242L249 241M264 241L264 244L265 244L264 241M293 241L294 242L293 241M284 242L285 243L284 242M234 243L235 244L234 243M246 244L239 246L239 247L246 244M292 244L293 245L292 244z"/>
<path style="fill:#111015; stroke:none;" d="M235 245L236 246L235 245z"/>
<path style="fill:#19191c; stroke:none;" d="M264 245L265 246L264 245z"/>
<path style="fill:#0d0a0a; stroke:none;" d="M237 246L238 247L237 246z"/>
<path style="fill:#19191c; stroke:none;" d="M256.333 246.667L256.667 247.333L256.333 246.667z"/>
<path style="fill:#111015; stroke:none;" d="M265 246L266 247L265 246z"/>
<path style="fill:#0d0a0a; stroke:none;" d="M227 247L228 248L227 247M255 247L256 248L255 247z"/>
<path style="fill:#111015; stroke:none;" d="M266 247L267 248L266 247z"/>
<path style="fill:#0d0a0a; stroke:none;" d="M291 247L289 250L291 247M254 248L255 249L254 248z"/>
<path style="fill:#111015; stroke:none;" d="M257 248L258 249L257 248z"/>
<path style="fill:#0d0a0a; stroke:none;" d="M268 248L269 249L268 248M228 249L229 250L228 249M253 249L254 250L253 249M270 249L271 250L270 249M278 249L279 250L278 249z"/>
<path style="fill:#111015; stroke:none;" d="M229 250L230 251L229 250z"/>
<path style="fill:#0d0a0a; stroke:none;" d="M252 250L253 251L252 250z"/>
<path style="fill:#111015; stroke:none;" d="M258 250L259 251L258 250z"/>
<path style="fill:#19191c; stroke:none;" d="M230 251L231 252L230 251z"/>
<path style="fill:#0d0a0a; stroke:none;" d="M251 251L252 252L251 251z"/>
<path style="fill:#19191c; stroke:none;" d="M259 251L260 252L259 251z"/>
<path style="fill:#0d0a0a; stroke:none;" d="M288 251L286 254L288 251z"/>
<path style="fill:#111015; stroke:none;" d="M231 252L232 253L231 252z"/>
<path style="fill:#0d0a0a; stroke:none;" d="M250 252L251 253L250 252z"/>
<path style="fill:#19191c; stroke:none;" d="M260 252L261 253L260 252M233 253L234 254L233 253z"/>
<path style="fill:#0d0a0a; stroke:none;" d="M248 253L249 254L248 253z"/>
<path style="fill:#19191c; stroke:none;" d="M261 253L262 254L261 253z"/>
<path style="fill:#0d0a0a; stroke:none;" d="M235 254L235 255L245 255L235 254z"/>
<path style="fill:#19191c; stroke:none;" d="M262 254L263 255L262 254z"/>
<path style="fill:#0d0a0a; stroke:none;" d="M284 254L282 257L284 254z"/>
<path style="fill:#19191c; stroke:none;" d="M264 255L265 256L264 255M266 256L267 257L266 256z"/>
</svg>
