<?xml version="1.0" standalone="yes"?>
<svg xmlns="http://www.w3.org/2000/svg" width="484" height="419">
<path style="fill:#010101; stroke:none;" d="M0 0L0 419L484 419L484 0L0 0z"/>
<path style="fill:#040307; stroke:none;" d="M239 205L238 207L239 205z"/>
<path style="fill:#070607; stroke:none;" d="M243 205L245 207L243 205z"/>
<path style="fill:#040307; stroke:none;" d="M237 208L238 209L237 208z"/>
<path style="fill:#050505; stroke:none;" d="M236 212L237 213L236 212z"/>
<path style="fill:#070607; stroke:none;" d="M244 212L245 213L244 212z"/>
<path style="fill:#040307; stroke:none;" d="M235 213L236 214L235 213z"/>
<path style="fill:#070607; stroke:none;" d="M234 215L235 216L234 215z"/>
<path style="fill:#050505; stroke:none;" d="M243 215L244 216L243 215z"/>
<path style="fill:#070607; stroke:none;" d="M278 216L279 217L278 216z"/>
<path style="fill:#090a0a; stroke:none;" d="M282 216L284 218L282 216z"/>
<path style="fill:#070607; stroke:none;" d="M242 217L243 218L242 217z"/>
<path style="fill:#040307; stroke:none;" d="M277 217L278 218L277 217z"/>
<path style="fill:#070607; stroke:none;" d="M233 218L234 219L233 218z"/>
<path style="fill:#040307; stroke:none;" d="M276 218L277 219L276 218z"/>
<path style="fill:#070607; stroke:none;" d="M241 219L242 220L241 219M274 219L275 220L274 219z"/>
<path style="fill:#040307; stroke:none;" d="M284.333 219.667L284.667 220.333L284.333 219.667z"/>
<path style="fill:#050505; stroke:none;" d="M232 220L233 221L232 220M272 220L273 221L272 220z"/>
<path style="fill:#070607; stroke:none;" d="M240 221L241 222L240 221z"/>
<path style="fill:#040307; stroke:none;" d="M270 221L269 223L270 221z"/>
<path style="fill:#050505; stroke:none;" d="M283 222L284 223L283 222z"/>
<path style="fill:#040307; stroke:none;" d="M230 223L231 224L230 223z"/>
<path style="fill:#090a0a; stroke:none;" d="M239 223L240 224L239 223z"/>
<path style="fill:#070607; stroke:none;" d="M267 223L268 224L267 223z"/>
<path style="fill:#090a0a; stroke:none;" d="M282 223L283 224L282 223z"/>
<path style="fill:#070607; stroke:none;" d="M265 224L263 227L265 224M281 224L282 225L281 224M229 225L230 226L229 225z"/>
<path style="fill:#090a0a; stroke:none;" d="M238 225L239 226L238 225z"/>
<path style="fill:#070607; stroke:none;" d="M280 225L281 226L280 225z"/>
<path style="fill:#040307; stroke:none;" d="M228 226L229 227L228 226z"/>
<path style="fill:#090a0a; stroke:none;" d="M278 226L279 227L278 226z"/>
<path style="fill:#070607; stroke:none;" d="M237 227L238 228L237 227z"/>
<path style="fill:#040307; stroke:none;" d="M260 227L261 228L260 227z"/>
<path style="fill:#090a0a; stroke:none;" d="M276 227L277 228L276 227z"/>
<path style="fill:#050505; stroke:none;" d="M227 228L228 229L227 228z"/>
<path style="fill:#040307; stroke:none;" d="M258 228L259 229L258 228z"/>
<path style="fill:#090a0a; stroke:none;" d="M274 228L275 229L274 228z"/>
<path style="fill:#070607; stroke:none;" d="M226 229L227 230L226 229M236 229L237 230L236 229M256 229L257 230L256 229M273 229L274 230L273 229z"/>
<path style="fill:#090a0a; stroke:none;" d="M235 230L236 231L235 230z"/>
<path style="fill:#070607; stroke:none;" d="M254 230L255 231L254 230M271 230L272 231L271 230M225 231L226 232L225 231z"/>
<path style="fill:#040307; stroke:none;" d="M251 231L250 233L251 231z"/>
<path style="fill:#090a0a; stroke:none;" d="M234 232L235 233L234 232z"/>
<path style="fill:#070607; stroke:none;" d="M248 233L249 234L248 233z"/>
<path style="fill:#050505; stroke:none;" d="M266 233L267 234L266 233z"/>
<path style="fill:#040307; stroke:none;" d="M224 234L225 235L224 234z"/>
<path style="fill:#070607; stroke:none;" d="M245 234L246 235L245 234z"/>
<path style="fill:#050505; stroke:none;" d="M264 234L265 235L264 234z"/>
<path style="fill:#090a0a; stroke:none;" d="M232 235L233 236L232 235z"/>
<path style="fill:#040307; stroke:none;" d="M240 235L240 236L244 236L240 235z"/>
<path style="fill:#070607; stroke:none;" d="M261 235L262 236L261 235z"/>
<path style="fill:#040307; stroke:none;" d="M222 236L223 237L222 236z"/>
<path style="fill:#090a0a; stroke:none;" d="M239 236L240 237L239 236z"/>
<path style="fill:#070607; stroke:none;" d="M259 236L260 237L259 236z"/>
<path style="fill:#050505; stroke:none;" d="M231 237L232 238L231 237z"/>
<path style="fill:#070607; stroke:none;" d="M237 237L238 238L237 237z"/>
<path style="fill:#050505; stroke:none;" d="M258 237L259 238L258 237M221 238L222 239L221 238M234 238L235 239L234 238z"/>
<path style="fill:#090a0a; stroke:none;" d="M235 238L236 239L235 238z"/>
<path style="fill:#070607; stroke:none;" d="M255 238L256 239L255 238z"/>
<path style="fill:#040307; stroke:none;" d="M232 239L233 240L232 239M253 239L254 240L253 239M220 240L221 241L220 240M251 240L252 241L251 240z"/>
<path style="fill:#050505; stroke:none;" d="M219 242L220 243L219 242z"/>
<path style="fill:#040307; stroke:none;" d="M246 242L247 243L246 242z"/>
<path style="fill:#090a0a; stroke:none;" d="M240 244L241 245L240 244z"/>
<path style="fill:#040307; stroke:none;" d="M238 245L239 246L238 245z"/>
<path style="fill:#070607; stroke:none;" d="M219 246L220 247L219 246z"/>
<path style="fill:#090a0a; stroke:none;" d="M235 246L236 247L235 246M220 247L221 248L220 247M232 247L233 248L232 247z"/>
<path style="fill:#040307; stroke:none;" d="M221.667 248.333L222.333 248.667L221.667 248.333M231 248L232 249L231 248z"/>
</svg>
